<svg height="2160" viewBox="0 0 2000 1080" width="4000" xmlns="http://www.w3.org/2000/svg" xmlns:xlink="http://www.w3.org/1999/xlink"><clipPath id="a"><path d="m1647.578 147.125h352.422v705.9h-352.422z"/></clipPath><clipPath id="b"><path d="m891.578 569.025-74.3 17.3v-67.3l74.3 8.5z"/></clipPath><clipPath id="c"><path d="m624.378 495.225h153.9v88.8h-153.9z"/></clipPath><path d="m2.193-.032v1080h2000v-1080zm1064.885 576.457-.4.7h-.1v.5h.1a.626.626 0 0 0 -.5.6c0 .4.5.6.5.6s.1.8-.4.9h-.4v.5a7.126 7.126 0 0 0 -1.1.7c-.5.4 0 1.7 0 1.7h-129.5s.4-1.3-.1-1.7a6.093 6.093 0 0 0 -1.2-.7h-.1v-.5h-.331a1.8 1.8 0 0 1 -.169-.9.626.626 0 0 0 .5-.6c0-.5-.6-.6-.6-.6h.2v-.5h-.1l-.5-.7v-68.8l.5-.8v-.4a.61.61 0 0 0 0-1.2h-.009c-.006-.056-.069-.758.356-.9h.453v-.5s.08-.042.185-.1h131.5c.128.063.214.1.214.1v.5h.362a1.264 1.264 0 0 1 .139.9.595.595 0 0 0 0 1.174v.426l.5.8z" fill="#fff"/><path d="m1144.378 322.725a144.047 144.047 0 0 0 -286.6 0l-.7.2v111.5h288v-111.6z" fill="#fff"/><g fill="#51dcad"><path d="m1003.078 220.525h25.6v25.3h-25.6z"/><path d="m1003.078 365.925h25.6v54.3h-25.6z"/><path d="m1003.078 249.625h25.6v25.3h-25.6z"/><path d="m1003.078 278.725h25.6v34.2h-25.6z"/><path d="m941.478 365.925h25.3v54.3h-25.3z"/><path d="m1003.078 316.825h25.6v45.3h-25.6z"/><path d="m1057.778 204.825a135.728 135.728 0 0 0 -25.3-8.1v20h25.3z"/><path d="m970.478 220.525h28.7v25.3h-28.7z"/><path d="m941.478 316.825h25.3v45.3h-25.3z"/><path d="m970.478 249.625h28.7v25.3h-28.7z"/><path d="m999.178 193.325a143.37 143.37 0 0 0 -28.7 3.2v20.2h28.7z"/><path d="m970.478 278.725h28.7v34.2h-28.7z"/><path d="m970.478 316.825h28.7v45.3h-28.7z"/><path d="m970.478 365.925h28.7v54.3h-28.7z"/><path d="m1028.678 195.925a144.275 144.275 0 0 0 -25.6-2.6v23.4h25.6z"/><path d="m1032.478 220.525h25.3v25.3h-25.3z"/><path d="m1090.678 365.925h25.3v54.3h-25.3z"/><path d="m1090.678 278.725h25.3v34.2h-25.3z"/><path d="m1061.578 316.825h25.3v45.3h-25.3z"/><path d="m1032.478 249.625h25.3v25.3h-25.3z"/><path d="m1112.378 245.825a145.688 145.688 0 0 0 -21.7-21.3v21.3z"/><path d="m1119.678 362.125h25.4v-39.3l-.7-.2c-.2-2-.4-3.9-.7-5.9h-23.9v45.4z"/><path d="m879.478 362.125v-45.3h-20.9c-.3 2-.5 3.9-.7 5.9l-.7.2v39.2z"/><path d="m1090.678 316.825h25.3v45.3h-25.3z"/><path d="m1061.578 216.725h18.4a149.118 149.118 0 0 0 -18.4-10.2z"/><path d="m1032.478 316.825h25.3v45.3h-25.3z"/><path d="m1032.478 365.925h25.3v54.3h-25.3z"/><path d="m1086.778 221.525c-.4-.3-.9-.7-1.3-1h-23.9v25.3h25.3v-24.3z"/><path d="m1061.578 278.725h25.3v34.2h-25.3z"/><path d="m1061.578 365.925h25.3v54.3h-25.3z"/><path d="m1061.578 249.625h25.3v25.3h-25.3z"/><path d="m1032.478 278.725h25.3v34.2h-25.3z"/><path d="m941.478 278.725h25.3v34.2h-25.3z"/><path d="m970.478 424.125h28.7v10.3h-28.7z"/><path d="m1003.078 424.125h25.6v10.3h-25.6z"/><path d="m1032.478 424.125h25.3v10.3h-25.3z"/><path d="m1061.578 424.125h25.3v10.3h-25.3z"/><path d="m857.078 365.925h22.3v54.3h-22.3z"/><path d="m883.278 424.125h25.3v10.3h-25.3z"/><path d="m912.378 424.125h25.3v10.3h-25.3z"/><path d="m879.478 260.225a149.664 149.664 0 0 0 -8.2 14.7h8.2z"/><path d="m857.078 424.125h22.3v10.3h-22.3z"/><path d="m1090.678 424.125h25.3v10.3h-25.3z"/><path d="m1119.678 274.925h11.2a142.558 142.558 0 0 0 -11.2-19.3z"/><path d="m1119.678 424.125h25.4v10.3h-25.4z"/><path d="m1115.378 249.625h-24.7v25.3h25.3v-24.6c-.3-.2-.4-.5-.6-.7z"/><path d="m1119.678 365.925h25.4v54.3h-25.4z"/><path d="m1119.678 278.725v34.2h23.3a139.888 139.888 0 0 0 -10.4-34.2z"/><path d="m941.478 424.125h25.3v10.3h-25.3z"/><path d="m937.578 245.825v-25.3h-20.9c-1.5 1.1-3 2.2-4.4 3.3v21.9h25.3z"/><path d="m937.578 208.025a143.691 143.691 0 0 0 -15.3 8.7h15.3z"/><path d="m912.378 316.825h25.3v45.3h-25.3z"/><path d="m879.478 312.925v-34.2h-9.9a147.25 147.25 0 0 0 -10.4 34.2z"/><path d="m941.478 249.625h25.3v25.3h-25.3z"/><path d="m941.478 220.525h25.3v25.3h-25.3z"/><path d="m966.678 197.425a137.691 137.691 0 0 0 -25.3 8.8v10.5h25.3z"/><path d="m912.378 365.925h25.3v54.3h-25.3z"/><path d="m883.278 365.925h25.3v54.3h-25.3z"/><path d="m883.278 278.725h25.3v34.2h-25.3z"/><path d="m883.278 316.825h25.3v45.3h-25.3z"/><path d="m908.578 274.925v-25.3h-21.7c-1.2 1.6-2.4 3.2-3.6 4.9v20.4z"/><path d="m912.378 249.625h25.3v25.3h-25.3z"/><path d="m912.378 278.725h25.3v34.2h-25.3z"/><path d="m908.578 227.025a143.621 143.621 0 0 0 -18.6 18.8h18.6z"/></g><path d="m1144.378 322.725a144.047 144.047 0 0 0 -286.6 0l-.7 111.7h288z" fill="none" stroke="#51dcad" stroke-miterlimit="10" stroke-width="3"/><path d="m1004.578 1.125h-7.3l2 192.2h3.8z" fill="#51dcad"/><path d="m938.406 0h-7.32l33.692 196.725h3.8z" fill="#51dcad"/><path d="m872.212 0h-7.319l71.485 208.625 3.1-1.9z" fill="#51dcad"/><path d="m607.686 0h-7.413l257.505 320.125.4-4.2z" fill="#51dcad"/><path d="m541.503 0-6.325 1.125 321.2 366.9.7-4z" fill="#51dcad"/><path d="m673.77 0h-7.414l202.922 277.525 1.9-2.6z" fill="#51dcad"/><path d="m739.905 0h-7.417l153.09 249.625 2.2-2.6z" fill="#51dcad"/><path d="m806.056 0h-7.322l109.844 227.025 1.8-2.5z" fill="#51dcad"/><path d="m1062.55 0h7.422l-33.794 196.725h-3.7z" fill="#51dcad"/><path d="m1128.744 0h7.42l-71.486 208.625-3.2-1.9z" fill="#51dcad"/><path d="m1393.37 0h7.313l-257.405 320.125-.4-4.2z" fill="#51dcad"/><path d="m1458.478 1.125h7.4l-321.2 366.9-.8-4z" fill="#51dcad"/><path d="m1327.287 0h7.314l-202.923 277.525-1.9-2.6z" fill="#51dcad"/><path d="m1261.152 0h7.316l-153.09 249.625-2.1-2.6z" fill="#51dcad"/><path d="m1195.002 0h7.321l-109.845 227.025-1.9-2.5z" fill="#51dcad"/><path d="m910.178 363.825h178.9v71.5h-178.9z" fill="#fff" stroke="#fff" stroke-miterlimit="10" stroke-width="3"/><path d="m1166.878 303.625a167.262 167.262 0 0 0 -332.8 0l-.9 129.7h334.5z" fill="none" stroke="#51dcad" stroke-miterlimit="10" stroke-width="3"/><path d="m811.178 388.125.7-103a189.586 189.586 0 0 1 377.2 0l.6 96.3 3-2.7-.6-93.7v-.1a192.7 192.7 0 0 0 -383.4 0l-.7 100.3c1.2 1.1 2.2 2.1 3.2 2.9z" fill="#51dcad"/><path d="m777.678 352.225.6-93.2a223.463 223.463 0 0 1 444.6 0l.6 92.8c1-1.4 1.9-2.8 3-4.1l-.6-88.8v-.1a226.357 226.357 0 0 0 -450.4 0l-.6 90.5a25.426 25.426 0 0 0 2.8 2.9z" fill="#51dcad"/><path d="m741.278 322.225a29.048 29.048 0 0 0 2.7 4.1l.6-93.6a257.235 257.235 0 0 1 511.8 0l.6 84.5a17.554 17.554 0 0 1 3-2.4l-.5-82.2v-.1a260.349 260.349 0 0 0 -518 0l-.6 89.3a.781.781 0 0 1 .4.4z" fill="#51dcad"/><path d="m1306.178 196.625v-.2a307.284 307.284 0 0 0 -99.225-196.425h-6.126c1.2 1 2.451 2.225 3.651 3.225a302.392 302.392 0 0 1 97.7 193.5l.6 85.9c1-1.3 2-2.5 3-3.8a6.47 6.47 0 0 1 .9-.8z" fill="#51dcad"/><path d="m794.2 0h-.067a307.55 307.55 0 0 0 -99.251 196.425l-.5 81.4c.1.1.3.1.4.2a25.383 25.383 0 0 1 3.6 2.9l.6-84.2a302.392 302.392 0 0 1 97.7-193.5c1.1-1 2.444-2.225 3.644-3.225z" fill="#51dcad"/><path d="m1372.478 168.425c1.6-.9 3.3-1.7 5-2.5l-.1-21.6v-.2a373.477 373.477 0 0 0 -45.211-144.125h-5.75a368.657 368.657 0 0 1 45.961 144.525z" fill="#51dcad"/><path d="m635.778 147.125v-2.7a369.856 369.856 0 0 1 45.975-144.425h-5.71a372.944 372.944 0 0 0 -45.165 144.025c1.6 1 3.3 2 4.9 3.1z" fill="#51dcad"/><path d="m1084.178 410.625v-10.3h-13.2v5.4h-5.7v-11.2a7.619 7.619 0 0 0 -.6-2 .349.349 0 0 0 -.2-.1c-.9-.3-.8-1-.8-1.7 0-.9 0-.9-1-.9-1.6 0-1.6 0-1.7 1.5a1.77 1.77 0 0 1 -.4 1 2.7 2.7 0 0 1 -.8.7c0 .1.1.1.1.2-.2 0-.6.1-.7 0a2.846 2.846 0 0 1 -1.1-3.2h-2.7c0 .6.1 1.1.1 1.6 0 .3-.1.7-.6.7-.6 0-.4-.4-.5-.7 0-.2-.1-.6-.3-.7a.64.64 0 0 1 -.5-.7c0-.4.1-.9-.5-1-.1 0-.1-.2-.2-.4s-.2-.4-.3-.6c-.2-.6-.2-1.4-.8-1.8v-.1c-.2-.2-.3-.6-.5-.6s-.7.2-.4.6c0 .1 0 .3-.1.3a1.346 1.346 0 0 0 -.5 1.2 3.494 3.494 0 0 1 -.5 1.3c0 .1-.2.1-.3.1a.831.831 0 0 0 -.8 1.1v.5c-1.3-.2-.5.9-.9 1.3-.3 0-.5.1-.8.1v14.3c0 1-.1 1-1.2.8v-4.8a.349.349 0 0 1 -.2-.1c-2.5 0-5 .1-7.5.1-.4 0-.5.2-.5.5v2c-.7.2-.6-.1-.6-.5v-12.5h-2.1v-4.8c0-.2 0-7.1-.1-7.3h-8.6c-.1.1-.1 7-.1 7.2-.1 1.6-.2 3.1-.3 4.7l-.3 8.1a.1.1 0 0 1 -.1.1h-3.4v-7.2h-9.8v.3c-.2 4.6.3 9.1-.3 13.7-.1.9 0 .9-1 1a.31.31 0 0 0 -.2.1v.6c0 .1-.2.4-.3.4h-1.9v-1.4c-.3 0-.6-.1-1-.1v-12.8c-.7.2-.7-.3-.7-.7s-.1-.8-.1-1.2c0-1.1-.1-2.1-.1-3.2h-12.6v4.4c0 .2 0 .5-.1.5-.5.1-.3.5-.3.7v19.8h-1.6v-7.1c-.6 0-1-.1-1.5-.1 0 .3-.1.5-.1.7h-1.2a5.283 5.283 0 0 0 -.1-1.3h-6.5v5h-1.1v-.3c-.1-4.1.1-8.3-.3-12.4 0-.2 0-.5-.1-.5-.6-.1-.4-.6-.4-.9 0-.4 0-.8-.7-.7.3-.9-.3-1.3-.9-1.8-.9-.7-1.8-1.5-2.8-2.4-.6.7-1.2 1.3-1.8 1.9 0-.1 0-.2-.1-.2a1.445 1.445 0 0 0 -.7-.2h-.9v-1.7c-.2-.2-.5-.3-.5-.4q-.15-1.2-.3-2.4v-.4c-.1-.2-.2-.3-.2-.4-.1.2-.2.3-.2.5q-.148 1.35-.3 2.7c0 .1 0 .2-.1.2-.7.1-.4.7-.5 1v.9h-1.4v1.7c-1.6-.4-.8.9-1.2 1.4-1.7-.3-.7 1-1.1 1.5a3.751 3.751 0 0 0 -1 .1v1.4a4.865 4.865 0 0 0 -1.2.1v6.7h-4c-.5 0-.8.1-.7.6v1.8c-2.3-.6-4.4-.2-6.6-.3v4c-.7-.1-.6.3-.6.7v2h-5.1c.1-.6-.3-.7-.7-.8a7.781 7.781 0 0 0 -3.4-.4c-.5 0-1 0-1.3.5-.2.3-.3.7-.5 1-.3 0-.7-.1-1.1-.1v-21.5a14.455 14.455 0 0 0 -.4-2.9c0-.2-.3-.3-.5-.4s-.4 0-.6 0a10.419 10.419 0 0 0 -1.5-3.9c-.1-.1-1.6-2.2-2.3-3.2a1.268 1.268 0 0 1 -.1-.6c-.1-.6-.2-1.2-.3-1.7h-.2c0 .6-.3.4-.4 1.8a1.9 1.9 0 0 1 -.3.9 39.756 39.756 0 0 1 -2.4 3.3 3.692 3.692 0 0 0 -1 3v.5a4.869 4.869 0 0 0 -1.2.1v27.9a.451.451 0 0 1 -.3.3 9.7 9.7 0 0 1 -1.7.1c.1-.7-.3-.8-.9-.7h-2.6v-7.7c-.2 0-.4-.1-.5 0a.906.906 0 0 1 -1.1-.6 9.062 9.062 0 0 0 -1.1-1.6c-.1-.2-.5-.3-.7-.3h-3.9a1.878 1.878 0 0 0 -2 1c-.4.8-.7 1.9-2.1 1.6a.31.31 0 0 0 -.2.1v4.3h-1.6v18.1h175.8v-23.7a20.107 20.107 0 0 0 -2.5-.1z" fill="#a5e2f9"/><path d="m901.778 390.225c0 1.1-.1 2.1-.1 3.2 0 .4-.1.8-.1 1.2s0 .8-.7.7v12.8c-.4 0-.6.1-1 .1v1.4h-1.9a.446.446 0 0 1 -.3-.4c-.1-.2 0-.4 0-.6-.1-.1-.1-.1-.2-.1-1-.1-.9-.1-1-1-.6-4.6-.1-9.1-.3-13.7v-.3h-9.8v7.2h-3v34.2h25.3v-44.8c-2.3.1-4.6.1-6.9.1z" fill="#4fa6c0"/><path d="m873.378 385.725v7.1h-2.1v12.5c0 .4 0 .7-.6.5v-2c0-.3 0-.5-.5-.5-2.5 0-5-.1-7.5-.1a.31.31 0 0 0 -.2.1v4.8c-1.1.2-1.2.2-1.2-.8v-14.3h-5.4v42.2h23.6v-49.3z" fill="#4fa6c0"/><path d="m879.478 413.825h3.8v20.6h-3.8z" fill="#fff"/><path d="m908.778 413.825h3.8v20.6h-3.8z" fill="#fff"/><path d="m1086.778 413.825h3.8v20.6h-3.8z" fill="#fff"/><path d="m1144.378 393.225c-.6.7-1.2 1.3-1.8 1.9 0-.1 0-.2-.1-.2a1.445 1.445 0 0 0 -.7-.2h-.9v-1.7c-.2-.2-.5-.3-.5-.4l-.3-2.4v-.4c-.1-.2-.2-.3-.2-.4-.1.2-.2.3-.2.5l-.3 2.7c0 .1 0 .2-.1.2-.7.1-.4.7-.5 1v.9h-1.4v1.7c-1.6-.4-.8.9-1.2 1.4-1.7-.3-.7 1-1.1 1.5a3.751 3.751 0 0 0 -1 .1v1.4a4.869 4.869 0 0 0 -1.2.1v6.7h-4c-.5 0-.8.1-.7.6v1.8c-2.3-.6-4.4-.2-6.6-.3v4c-.7-.1-.6.3-.6.7v2h-5.1c.1-.6-.3-.7-.7-.8a7.781 7.781 0 0 0 -3.4-.4c-.5 0-1 0-1.3.4-.2.3-.3.7-.5 1-.3 0-.7-.1-1.1-.1v-22.2h-11.3v25.5a.451.451 0 0 1 -.3.3 9.7 9.7 0 0 1 -1.7.1c.1-.7-.3-.8-.9-.7h-2.6v-7.7c-.2 0-.4-.1-.5 0a2.483 2.483 0 0 1 -.9-.1v22.6h55.8v-40a13.9 13.9 0 0 1 -2.1-1.1z" fill="#4fa6c0"/><path d="m1115.878 413.825h3.8v20.6h-3.8z" fill="#fff"/><path d="m910.878 365.825h3.2v68.5h-3.2z" fill="#4fa6c0"/><path d="m1084.578 365.825h3.2v68.5h-3.2z" fill="#4fa6c0"/><path d="m913.978 365.825h172.9v3.2h-172.9z" fill="#4fa6c0"/><path d="m914.178 369.125h170.5v4.2h-170.5z" fill="#7165da"/><path d="m914.078 434.325v-65.2l2.7 4.2v61z" fill="#5140b5"/><path d="m1084.578 434.325v-65.2l-2.6 4.2v61z" fill="#5140b5"/><path d="m1146.378 394.325h6.2v-13h6.8v6.5h4.5v3.5h3.1v1.4l-20.6 18.2z" fill="#6cf"/><path d="m855.878 392.725h-7.5v-13.7h-4.9v9.6h-5.4v-10h-2.9l-.2 16.4 20.9 18.5z" fill="#6cf"/><path d="m829.178 389.925.1-14.7h-4v-10.4h-8v14.4l11.8 10.6" fill="#6cf"/><path d="m855.878 413.525-3.8-3.3v-18.9h3.8z" fill="#fff"/><path d="m1146.378 413.525 3.8-3.3v-18.9h-3.8z" fill="#fff"/><path d="m1171.378 388.725-.2-18.6h4.8v-6.9h5.5v9.9h5v2.1l-15.1 13.4" fill="#6cf"/><path d="m968.978 431.825-.5 1a15.289 15.289 0 0 0 -.8 2.3 15.538 15.538 0 0 0 -.3 4.6c.1 2 1.4 7.2 1.4 8.4v2h5.8a31.1 31.1 0 0 1 .5-5l1-3.5s.8 2.7 1.4 4.3a34.9 34.9 0 0 0 1.9 3.7h8.3a38.69 38.69 0 0 1 -1.8-5.4c-.5-2.3-1.6-4.7-1.9-5.9-.2-1.2-.5-.9-.5-1.9v-2.4l-6.7-3z" fill="#5140b5"/><path d="m980.878 411.925 1.8-.7a2.988 2.988 0 0 1 2 .2 6.3 6.3 0 0 1 2 2.6 10.7 10.7 0 0 1 .5 2.9s-.5.6-1.2 1.3-2.4 6.7-2.4 6.7-.5.5 0 1.9.9 2 .7 2.9a19.7 19.7 0 0 0 -.4 2.9c0 .7 0 1.9-.2 1.9a12.147 12.147 0 0 1 -4.2-.4 18.463 18.463 0 0 0 -5.4-.9c-1.4 0-5.1 0-5.6-.6s-.2-2.7.1-3.4a8.5 8.5 0 0 0 .7-2.1c0-.4 1.2-2.1 1.2-2.5 0-.5.2-2.3.2-3.3a44.673 44.673 0 0 0 -1.1-5.2s-1.6-.1-1.6-.6a5.4 5.4 0 0 1 1-2.5 6.143 6.143 0 0 1 2.4-1.4 20.948 20.948 0 0 0 2.3-1.3l2.4.7z" fill="#7165da"/><path d="m977.078 405.025.4-2.4s-1.3-2.3-2.1-2.6a3.412 3.412 0 0 0 -2.6-.3c-.8.4-1.3.7-1.3.7s-1 .6-1.2 1.3a3.607 3.607 0 0 0 -.3 2.1 8.172 8.172 0 0 0 1.3 2.3 3.724 3.724 0 0 0 -.4 1.7 19.981 19.981 0 0 0 .4 2.1c0 .6.1 1.9.1 1.9a24.521 24.521 0 0 0 2.8-.6 8.573 8.573 0 0 0 2.2-1.5z" fill="#a5966a"/><path d="m983.278 417.325a1.752 1.752 0 0 1 1.2-.4c.8 0 1.5-.1 1.6.2a12.945 12.945 0 0 1 0 4c-.3 1.3-.7 4.1-1.1 4.4a4.735 4.735 0 0 1 -1.7.1c-.5 0-3.3.1-4.2 0s-4-1.1-4.9-1.1a3.352 3.352 0 0 1 -2.4-1c-.2-.5 1.4-2.7 1.4-2.7s.3 1.3.8 1.5a2.507 2.507 0 0 0 .9.4 24.748 24.748 0 0 0 3.7-.1c1.2-.1 3.7-.1 3.9-.4s.8-4.9.8-4.9z" fill="#004366"/><path d="m972.378 423.525a3.367 3.367 0 0 1 -1.7-.6 15.258 15.258 0 0 1 -1.3-1.5 5.2 5.2 0 0 1 -.4-2.4 12.734 12.734 0 0 0 -.2-2.2c-.1-.6-.2-1.9-.2-1.9a1.944 1.944 0 0 1 1 .1 8.092 8.092 0 0 1 1.5.5s.4-2.1.6-2.7a3.519 3.519 0 0 0 .2-1.2c0-.2.2-1 .2-1.3a9.652 9.652 0 0 1 0-1.7 3.114 3.114 0 0 1 .7-.9c.2-.2.3-.6.4-.5h.1s.3-.3.5-.1 1 .9 1 1.1v.6a.693.693 0 0 1 .5 0c.3.1.3.2.2.3a6.041 6.041 0 0 0 -1.3 1.2 16.59 16.59 0 0 0 -.6 1.6c-.2.3-.3.2-.3.7a20.627 20.627 0 0 0 .1 4.2 11.444 11.444 0 0 1 .2 4.1 4.76 4.76 0 0 1 -1.2 2.6z" fill="#004366"/><path d="m982.678 411.225a9.622 9.622 0 0 1 -3.1-1 2.576 2.576 0 0 1 -1-1.9 3.593 3.593 0 0 0 -.5-1.4s.3 0 .4-.6a4.922 4.922 0 0 0 -.1-1.4c0-.1.2-.2 0-.6s-.6-1.7-.9-1.7c-.2 0-.1.3-.5.3a3.011 3.011 0 0 1 -1.8-.2c-.7-.4-.9-.9-1.4-1.2a3.685 3.685 0 0 0 -.9-.4 2.051 2.051 0 0 0 .5 1.2 4.437 4.437 0 0 0 1 .9 1.233 1.233 0 0 1 -1.1-.2 6.326 6.326 0 0 1 -1.2-.9 3.157 3.157 0 0 0 .5 1.5c.4.4.4.6.2.7s-.8.3-.8.9.5 1 .1 1.2-.7.2-.7.5.7 1.7 1.2 1.6a2.175 2.175 0 0 1 1.6.7c.2.3 1 1 .8 1.3-.1.3-.9.8-.9.8a7.026 7.026 0 0 0 1.2 3.2 3.328 3.328 0 0 0 3.6.9 4.488 4.488 0 0 0 2.8-2.1 13.9 13.9 0 0 0 1-2.1z" fill="#004366"/><path d="m1076.178 409.325s-1.2-.9-1.3-1.5a8.443 8.443 0 0 1 -.2-1.9 1.082 1.082 0 0 0 .4-.6 7.775 7.775 0 0 0 .1-1.3 3.908 3.908 0 0 0 .5-.4 2.106 2.106 0 0 0 .5-1.3c0-.3 0-.6-.2-.6a1.238 1.238 0 0 1 -.3-.2l.1-2.3-.2-1.6-1.6-1.8-3.4.3-1.7 1-.3 3.2-.1 1s-.2 0-.3.3a4.954 4.954 0 0 0 .2 1.7c.2.2.4.6.5.6h.3a7.174 7.174 0 0 0 .1 1.3c.1.3.4.4.4.7a18.577 18.577 0 0 1 .1 2.6 2.406 2.406 0 0 1 -.6 1.3v1.6l3.6.7 3.5-1.8z" fill="#7165da"/><path d="m1063.078 440.825s1.4 8.7 1.4 10.1c.1 1.4.6 5.4.6 5.4h4.8s.1-3.2.5-5.9a57.475 57.475 0 0 1 1.5-6.4s1.6 7.3 2 8.6a12.913 12.913 0 0 1 .2 3.7h5a37.051 37.051 0 0 1 -.6-6.5c.1-2.6 1.1-10.4 1.1-10.4l.8-5.4-17.9.2z" fill="#004366"/><path d="m1079.778 436.925a13.027 13.027 0 0 1 -4.6.9c-2.5 0-10.2-.9-11.4-1.9s-.6-9.5-.6-9.5l-.9-5.3-1.2-.7s2-7.4 2.7-7.9 2.9-.8 3.6-1.5 1.9-1.7 2-1.4.3 1.6 2.5 1.4 3.2-.4 3.7-.8c.6-.3.4-1.2.7-1.1.4.2.5.7 1.4.9a24.667 24.667 0 0 1 4.3 2.1c.3.3 1.2 4.5 1.7 6.2a5.338 5.338 0 0 1 .3 2.5l-2.1 2.3z" fill="#004366"/><path d="m1065.478 422.625-3.3-1.4s-.1 2.7-.2 3.6a19.463 19.463 0 0 0 -.7 6.2c.3 2.4.4 5.1.4 5.8s-.3 2-.3 3.2a13.3 13.3 0 0 0 .3 3.2 7.993 7.993 0 0 0 1.3 1.3c.4.3 1.5.7 1.6.5s.2-.6-.1-.8a2.639 2.639 0 0 1 -.7-1.5c0-.6-.1-1.7.1-1.5a2.9 2.9 0 0 1 .3 1.4c0 .4.2 1 .4 1s.5-.6.5-.9-.2-2.7-.3-3a10.656 10.656 0 0 1 -.9-2.6 59.007 59.007 0 0 1 .7-7.1c.2-1.2.4-4.4.6-5.2a5.434 5.434 0 0 0 .3-2.2z" fill="#7165da"/><path d="m1079.578 421.625s.6 4.5.6 5.1c0 .7-.4 3.6-.4 4.3a27.694 27.694 0 0 1 -.3 3.9 16.84 16.84 0 0 1 -.9 2.7 3.933 3.933 0 0 0 -1.2 1.8 23.323 23.323 0 0 0 -.5 2.7c-.1.4-.3.8.1.7a2.361 2.361 0 0 0 .9-.8 3.933 3.933 0 0 0 .2-.6 2.781 2.781 0 0 1 -.3 1.3c-.3.4-1.1.7-1.1 1 0 .2.3.3.3.3s0 .3.2.3.8-.1.8-.1a.205.205 0 0 0 .3.2 11.084 11.084 0 0 0 1.9-.9 6.368 6.368 0 0 0 1-1.8 29.429 29.429 0 0 1 .5-4.4 7.57 7.57 0 0 0 .2-1.9c.1-.5 1.4-5.1 1.6-6a34.942 34.942 0 0 0 .1-4.6c0-1-.3-4.8-.3-4.8a4.867 4.867 0 0 0 -2 .3 4.644 4.644 0 0 0 -1.7 1.3z" fill="#7165da"/><path d="m1068.478 401.425s.1-.1.3 0c.3.1.3.2.4.1.1-.2 0-2.7.2-3.3s.3-1.2 1.4-1.3a10.421 10.421 0 0 1 3.6.1 1.6 1.6 0 0 1 .9 1.3c0 .4.1 2 .1 2.4v1.1s.2-.2.3-.2a4.686 4.686 0 0 0 .5-2.2 7.432 7.432 0 0 0 -.3-1.8 7.281 7.281 0 0 0 -.6-.7 3.443 3.443 0 0 0 -.5-1.6 4.95 4.95 0 0 0 -3.5-.3 4.625 4.625 0 0 0 -2.8 2.3 5.331 5.331 0 0 0 -.2 2.7 8.794 8.794 0 0 0 .2 1.4z" fill="#004366"/><path d="m879.478 473.525-842-473.525h-37.478v313.208l879.478 201.217z" fill="#51dcad"/><path d="m1080.278 473.525h167.4v107.9h-167.4z" fill="#004366"/><path d="m753.978 473.525h167.3v107.9h-167.3z" fill="#004366"/><path d="m41.574 1080 891.804-502.775h133.3l890.907 502.775z" fill="#fff"/><path d="m879.478 473.525 52.2 29.4 136.605.299 51.395-29.699z" fill="#fff"/><path d="m930.478 501.425h137.4v2.3h-137.4z" fill="#6cf"/><path d="m1088.878 494.825h-177.8l6.3 6.6h165.5z" fill="#4fa6c0"/><path d="m1064.778 501.425s-.4 1.3.1 1.7a6.093 6.093 0 0 0 1.2.7h15.5a7.126 7.126 0 0 0 1.1-.7c.5-.5 0-1.7 0-1.7z" fill="#a5966a"/><path d="m1066.578 505.244h14.2s-.1-.841.4-.946h-14.8c0-.105.3.21.2.946z" fill="#a5966a"/><path d="m1066.578 506.325h14.2v.5h-14.2z" fill="#a5966a"/><path d="m1067.078 507.625-.5-.8h14.2l-.5.8z" fill="#5140b5"/><path d="m1066.678 506.425h14.1a.61.61 0 0 0 0-1.2h-14.2a.626.626 0 0 0 -.5.6c0 .5.6.6.6.6z" fill="#5140b5"/><path d="m1066.078 503.825h15.5v.5h-15.5z" fill="#5140b5"/><path d="m1082.678 582.625s.4-1.3-.1-1.7a6.093 6.093 0 0 0 -1.2-.7h-15.5a7.126 7.126 0 0 0 -1.1.7c-.5.4 0 1.7 0 1.7z" fill="#a5966a"/><path d="m1065.878 579.725h15.5v.5h-15.5z" fill="#5140b5"/><path d="m1080.878 578.825h-14.2s.1.8-.4.9h14.8c-.1.1-.3-.2-.2-.9z" fill="#a5966a"/><path d="m1080.778 577.625h-14.1a.626.626 0 0 0 -.5.6c0 .4.5.6.5.6h14.2a.626.626 0 0 0 .5-.6c0-.5-.6-.6-.6-.6z" fill="#5140b5"/><path d="m1066.578 577.125h14.2v.5h-14.2z" fill="#a5966a"/><path d="m1080.278 576.425.5.7h-14.1l.4-.7z" fill="#5140b5"/><path d="m1067.078 507.625h13.2v68.8h-13.2z" fill="#7165da"/><path d="m1069.278 575.425a.645.645 0 0 1 -.6-.6v-65.8a.645.645 0 0 1 .6-.6.645.645 0 0 1 .6.6v65.8a.645.645 0 0 1 -.6.6z" fill="#5140b5"/><path d="m1072.078 575.425a.645.645 0 0 1 -.6-.6v-65.8a.645.645 0 0 1 .6-.6.645.645 0 0 1 .6.6v65.8a.645.645 0 0 1 -.6.6z" fill="#5140b5"/><path d="m1074.878 575.425a.645.645 0 0 1 -.6-.6v-65.8a.645.645 0 0 1 .6-.6.645.645 0 0 1 .6.6v65.8a.645.645 0 0 1 -.6.6z" fill="#5140b5"/><path d="m1077.678 575.425a.645.645 0 0 1 -.6-.6v-65.8a.645.645 0 0 1 .6-.6.645.645 0 0 1 .6.6v65.8a.645.645 0 0 1 -.6.6z" fill="#5140b5"/><path d="m917.378 501.425s-.4 1.3.1 1.7a6.093 6.093 0 0 0 1.2.7h15.5a7.126 7.126 0 0 0 1.1-.7c.5-.5 0-1.7 0-1.7z" fill="#a5966a"/><path d="m919.17 505.236h14.2s-.1-.827.4-.931h-14.8c0-.105.2.207.2.931z" fill="#a5966a"/><path d="m919.178 506.325h14.2v.5h-14.2z" fill="#a5966a"/><path d="m919.678 507.625-.5-.8h14.2l-.5.8z" fill="#5140b5"/><path d="m918.678 503.825h15.5v.5h-15.5z" fill="#5140b5"/><path d="m919.278 506.425h14.1a.61.61 0 0 0 0-1.2h-14.2a.626.626 0 0 0 -.5.6c0 .5.6.6.6.6z" fill="#5140b5"/><path d="m935.278 582.625s.4-1.3-.1-1.7a6.093 6.093 0 0 0 -1.2-.7h-15.5a7.126 7.126 0 0 0 -1.1.7c-.5.4 0 1.7 0 1.7z" fill="#a5966a"/><path d="m918.378 579.725h15.5v.5h-15.5z" fill="#5140b5"/><path d="m933.378 578.825h-14.2s.1.8-.4.9h14.8c0 .1-.2-.2-.2-.9z" fill="#a5966a"/><path d="m933.278 577.625h-14.1a.626.626 0 0 0 -.5.6c0 .4.5.6.5.6h14.2a.626.626 0 0 0 .5-.6c0-.5-.6-.6-.6-.6z" fill="#5140b5"/><path d="m919.278 577.125h14.2v.5h-14.2z" fill="#a5966a"/><path d="m932.878 576.425.5.7h-14.2l.5-.7z" fill="#5140b5"/><path d="m919.678 507.625h13.2v68.8h-13.2z" fill="#7165da"/><path d="m921.878 575.425a.645.645 0 0 1 -.6-.6v-65.8a.645.645 0 0 1 .6-.6.645.645 0 0 1 .6.6v65.8a.645.645 0 0 1 -.6.6z" fill="#5140b5"/><path d="m924.678 575.425a.645.645 0 0 1 -.6-.6v-65.8a.645.645 0 0 1 .6-.6.645.645 0 0 1 .6.6v65.8a.645.645 0 0 1 -.6.6z" fill="#5140b5"/><path d="m927.478 575.425a.645.645 0 0 1 -.6-.6v-65.8a.645.645 0 0 1 .6-.6.645.645 0 0 1 .6.6v65.8a.645.645 0 0 1 -.6.6z" fill="#5140b5"/><path d="m930.278 575.425a.645.645 0 0 1 -.6-.6v-65.8a.645.645 0 0 1 .6-.6.645.645 0 0 1 .6.6v65.8a.645.645 0 0 1 -.6.6z" fill="#5140b5"/><path d="m911.078 491.325h177.8v3.5h-177.8z" fill="#a5966a"/><path d="m879.478 434.325h240.2v39.2h-240.2z" fill="#a5966a"/><path d="m723.078 296.025h556.9v8.4h-556.9z" fill="#a5966a"/><path d="m1119.678 434.425v39.1l197.1-110.7v-102.8z" fill="#5140b5"/><path d="m879.478 434.325v39.2l-197-110.7v-102.8z" fill="#5140b5"/><path d="m1316.778 362.825 644.652-362.625-502.469-.2c-2.2 2.2-65.783 72.525-142.183 162.725z" fill="#e62456"/><path d="m682.478 362.825-645-362.825h502.753c2.2 2.2 65.847 72.525 142.247 162.725z" fill="#e62456"/><path d="m1419.578 271.625 273-175.3-4.047-96.325h-143.819l-125.134 124.225z" fill="#fff"/><path d="m1525.673 0-117.095 120.325v158.3l11-7v-147.4l125.134-124.225z" fill="#6cf"/><path d="m1513.478 62.825c47.7-42 91.2-61.7 116.7-27 13 17.7 5.9 37.3-4.4 56.6 0 0 31.2 13.5 31.9 13.8s2.4 3.9-2.9 5.4c-4.1 1.2-37 7.7-50.5 10.3a209.733 209.733 0 0 1 -29 25.7c-46.9 34.2-100.1 41.1-115.9 19.6-14.3-19.4 10.5-66 54.1-104.4z" fill="#6cf"/><path d="m593.078 271.625-273-175.3 4.048-96.325h143.819l125.133 124.225z" fill="#fff"/><path d="m486.983 0 117.095 120.325v158.3l-11-7v-147.4l-125.133-124.225z" fill="#6cf"/><path d="m499.278 62.825c-47.7-42-91.2-61.7-116.7-27-13 17.7-5.9 37.3 4.4 56.6 0 0-31.2 13.5-31.9 13.8s-2.4 3.9 2.9 5.4c4.1 1.2 37 7.7 50.5 10.3a209.733 209.733 0 0 0 29 25.7c46.9 34.2 100.1 41.1 115.9 19.6 14.2-19.4-10.5-66-54.1-104.4z" fill="#6cf"/><path d="m1195.578 651.325-23.7-13.5v-193.6l23.7-15z" fill="#5140b5"/><path d="m1413.678 887.425h586.322v33.9h-586.322z" fill="#004366"/><path d="m1095.578 620.425v7.7l318.1 293.2v-33.9l-163.1-148.1z" fill="#4fa6c0"/><path d="m1095.578 620.825 153.1 119 165.9 175 585.422 2.895v-251.529l-364.722-45.366z" fill="#5140b5"/><path d="m1221.978 491.325v112.1l275.3 77.6v-251.8z" fill="#4fa6c0"/><path d="m1497.278 429.225h141v191.9h-141z" fill="#a5966a"/><g clip-path="url(#a)"><path d="m1867.378 193.325-20.5 11.1v470.2l20.5 2.2z" fill="#5140b5"/><path d="m1867.378 193.325h23.9v483.5h-23.9z" fill="#a5966a"/><path d="m2000 539.125h-312.422v-133.4l312.422-60.292z" fill="#6cf"/><path d="m2003.578 531.725-311 2.6v-124l311-54.4z" fill="none" stroke="#bfe8f7" stroke-miterlimit="10"/><path d="m1905.978 409.225a12.489 12.489 0 0 0 -.5 7c.9 3.6 1.8 5.6.9 7.7-.9 2-4.5 7.2-3.2 8.6s3.4 1.1 3.4 2.9-1.6 2.9-.5 4.1l1.1 1.1s-1.1 1.4-.5 2.3c.7.9 1.8.7 1.8 2.3s-.7 4.7.7 4.7 5.6-.5 9 .9a7.348 7.348 0 0 1 4.5 6.8c-.2 1.8-4.1 6.5-4.1 7.9s28.9 9 28.9 9l9.7-8.1s-11.1-10.9-12-14.4c-1.1-4.2-2.6-8.8-2.6-14.4s-6-34.1-6-34.1z" fill="#fff"/><path d="m1896.778 509.225s-6.9-12.4-8.9-16.2-5.8-9.4-7-10.4a18.777 18.777 0 0 1 -3.5-4.3c-.9-1.5-5.3-5.3-5.3-6.9s.6-2 1.2-1.7a2.792 2.792 0 0 0 .7.3 12.6 12.6 0 0 1 -.6-2.6c0-.8.9-1 1.6-.8a7.583 7.583 0 0 1 1.7.9s-.8-2.7-.6-3c.8-1.2 2.1.1 3 1s4.8 4.8 4.8 4.2c0-.7.5-1-.3-2.6s-2.4-4.2-2-4.6a1.452 1.452 0 0 1 2.3-.2c1 .9 2 3.4 2.4 3 .3-.3-.9-2.5-.3-4.1s1.6-3.2 2.5-1.8 2 6.1 2 7.8-.9 5.9.1 8.5 9.6 15.4 9.6 15.4l.1 9z" fill="#fff"/><path d="m1883.378 593.925s-1.8.1-.8-4.3 4.4-17.6 4.7-29.8 1.4-30.1 6.1-44 5.8-12.9 5.8-24c0-11.2 2.7-19.6 9.1-24.7s6.8-6.1 14.5-5.1c7.8 1 22 4.4 25.4 4.4s7.4-2.4 7.4-2.4 9.1 11.2 10.5 20-1.4 24.7-5.1 38.2-9.8 30.4-9.8 40.9a90.758 90.758 0 0 0 2 18.9l-2.7 3.2-9.8 23.9-35.2 4.7z" fill="#004366"/><path d="m1899.178 775.025s.9-28.6.9-37.7-.9-22.8.5-29.3 7-49.6 8.6-55.3c1.6-5.6 7.9-16.7 7.9-16.7s3.6 27.5 7.2 40.1 7.4 39 7.7 43.1c.2 4.1 3.6 17.1 3.6 24.1a113.43 113.43 0 0 0 1.8 16.7l8.8 9.7 9.9-4.1s6.3-1.1 7.2-2.5-.9-20.8-1.1-26.4-3.8-34.3-6.1-46.2c-2.3-12-6.8-36.1-6.8-43.5s-.2-23 .5-26.8 2.7-7.7 2.7-16.5a118.464 118.464 0 0 0 -1.8-18.5s-3.2 9.2-12.2 12c-9 2.7-26.2 4.3-32.9 3.2-6.8-1.1-21.2-6.1-22.1-6.5s-8.3 27.1-9.7 38.1-6.5 66.3-6.3 72.9c.2 6.5 3.2 13.3 3.4 20.8.2 7.4 2.3 21.4 1.8 29.1s-3.4 22.8-3.4 22.8l6.3 12.4 15.3-8.8c0-.1 5.2 2.1 8.3-6.2z" fill="#7165da"/><path d="m1890.878 781.125s2.9 9.2 2.9 11.1c0 1.8 0 5-2.3 7.4-2.3 2.5-4.7 4.3-9 4.3s-8.1-1.4-13.1-.7-13.5 2.9-19.6 2.3c-6.1-.7-12.2-4.1-13.8-6.1s-1.6-9.9 1.1-9.9a49.214 49.214 0 0 0 18-5c6.3-3.4 14-7 14-7s1.1 2.3 5.2 2.9 14.8 1.8 16.6.7z" fill="#e62456"/><path d="m1956.078 765.725a59.394 59.394 0 0 1 2.5 7.4c.9 3.6 4.1 9.7 2.5 10.8s-3.2 3.4-7.9 3.4-7.9-1.6-9-3.8c-1.1-2.3-3.2-6.1-6.1-6.8s-8.3-.2-11.7-2.9-5-6.3-5-8.6.7-5.9 2.3-5.9 9 .9 10.4.9 3.4-.2 3.4-.2 3.4 4.3 7 5c3.5.7 11.6.7 11.6.7z" fill="#e62456"/><path d="m1923.878 507.425s-2.7 15.2-5.1 23-8.1 18.3-9.8 17.9-10.8-5.4-17.6-12.5-21-27.4-23.7-29.1-8.5-2-11.5-2-5.2.1-6.2-.8a24.147 24.147 0 0 1 -2.3-2.6 1.682 1.682 0 0 1 -1.7-.6 22.118 22.118 0 0 1 -1.9-2.3 5.03 5.03 0 0 1 -2.9-2.3 13.593 13.593 0 0 1 -1-3.9s-3.5-.7-3.5-1.9 1.5-1.7 2.6-1.7 5.2.5 8.3.5 9.5-.5 9.5-.5-5.5-2.6-6.7-3.7c-1.1-1.1-1.6-3.6-.2-3.6s7.8 3.6 9 3.6 7.3.3 10.4 3.8c3 3.5 2.4 3.8 7.4 10a171.544 171.544 0 0 0 12.2 14c3.6 3.6 9.5 9 9.5 9l2 1.7s-.8-9.9-.1-15 2.6-12.4 2.6-12.4 8.8 1.8 12.2 4.3 8.5 7.1 8.5 7.1z" fill="#fff"/><path d="m1937.778 441.625c-2.3-4.5-5-14.2-7.9-16.5s-3.2.5-7.2 0-2.2-11.6-6.7-14.5-10.1 2.5-12 .8c-1.5-1.4-3.9-5 3.6-11.1 7.4-6.1 15.5-10.8 26.4-9 10.8 1.8 12.7 4 14.2 6.5 1.6 2.5.9 4.1 3.4 4.1s3.8-4.5 10.6 3.8 5.6 26.8 5.9 31.6c.2 4.7.9 12.2.9 12.2s-4.7-3.6-4.7-4.5 1.6 1.6-2.3 8.1-7.6 12.6-7.6 13.5c-3.9-2-6.1-3.4-6.1-10.1 0-6.8-1.1-5.1.5-12.3s4.1-10.1 2.8-13.3c0 3.2-1.1 5.2-3.1 8.4-2.7 8-8.4 6.9-10.7 2.3z" fill="#5140b5"/><path d="m1761.178 749.825 1.9 1.5s-.4-1.3 3.8 2.5 2.8 4.4 7.5 7.5 11.4 7.2 11.4 8.6.2 4.3-1.9 5.2c-2.2.9-8.8 2.9-11.8 2.7s-8.4-2.1-11.5-3.9-6.1-3.2-8.2-3.2c-2.2 0-7.1-.9-7.8-1.9-.6-1.1.2-9.3.8-11.4s2.9-5.8 4.5-6.1c1.6-.2 11.3-1.5 11.3-1.5z" fill="#4fa6c0"/><path d="m1715.678 766.025s-3.9 1-4.2 3-1.6 11.2-1.1 12.8 1.8 3 4.1 5.6 7.2 7.9 10.8 8.3 12.6-.2 15.1-1.1a4.08 4.08 0 0 0 3-4.1c0-1.4.1-5.1-2.2-7.9s-9.6-11.4-10.4-13.9-.8-3.8-2.8-4.6c-1.9-.9-12.3 1.9-12.3 1.9z" fill="#4fa6c0"/><path d="m1750.578 740.325s.4 6.3-.3 9.2c-.8 2.9-2.2 5.6-1 6.6s3.6 1.7 5.1.5 3.7-5.2 5.4-5.1a16.73 16.73 0 0 0 3.4-.2s-1.5-10.9-1.5-12.8c0-1.8-11.1 1.8-11.1 1.8z" fill="#a5966a"/><path d="m1716.578 748.125s-.3 7.5-1.1 9.7a57.319 57.319 0 0 0 -2.2 10.6c0 1.8.1 2.7 2.2 2.4s7.1-5 9.4-5h4v-20.8c0-1.7-12.3 3.1-12.3 3.1z" fill="#a5966a"/><path d="m1725.878 567.825s-2.4 23.4-1.1 43.7 5.6 48.6 5.4 54.3.4 10.2-2.6 15.8-9.1 14.1-10.2 24.9-3.2 43.2-3.2 43.2 16.4 2.2 17.1 2.2 4.3-20.1 6.5-26.2 10.4-34.6 10.4-34.6-.4 19.7-.4 30.5.4 22.9.4 22.9l17.5-1.7s2.8-45.4 2.8-51.2.9-24.6 3.7-33.3c2.8-8.6 11.7-38.3 13.2-50.8s1.9-26.8 1.1-32.2a113.554 113.554 0 0 0 -2.8-12.3l-17.9-12.5z" fill="#51dcad"/><path d="m1726.678 516.325s-5.2 1.5-7.5.3c-2.3-1.1-6.5-7.5-6.6-12.3s-1.3-10.5.6-14.4 7-15.1 8.9-19.5 5-15.6 5-17.5a65.421 65.421 0 0 0 -1-7c-.2-1.5-1.6-6-1.6-9.2s1.3-8.8 4.9-11.2 5.2-6.3 12.4-5.7 19.2 11.8 19.2 17-3.7 22.1-3.7 28.4 1.1 35.7 1.1 35.7z" fill="#5140b5"/><path d="m1725.878 476.825s7.1-2.4 8.8-4.5c1.6-2.1 2.8-11.4 2.1-13.5a6.388 6.388 0 0 0 -3.7-4.4c-1.8-.6-6.2-4.4-5.8-6.4s2.8-5.6 3.9-5.2 1.6 3.6 3.4 2.8 4.8-7.2 8.5-8.2 19.7 2.4 19.7 2.4l.8 5.7s-1.3 14.1-3.4 15.4-7.1 2.8-7.1 4.7.3 10.4.3 10.4l-15.9 7.1z" fill="#a5966a"/><path d="m1734.578 432.325s-11.4 9.6-11.4 10.4a13.524 13.524 0 0 0 1.4 4.6 2.1 2.1 0 0 0 2.5.6c.6-.3 11-10.1 11-10.1z" fill="#004366"/><path d="m1740.378 431.225 1.5-11.4s3.4-4.8 5.6-4.8 25 4.1 27.2 6.1c2.3 1.9 4.4 10.2 4.2 12.2a7.011 7.011 0 0 1 -1.5 3.5l-1.8 3.4-18.5-2.7-14.2-.2z" fill="#fff"/><path d="m1776.478 442.925 1.2-3.5s-9.5-4-13.2-4.2-14.7-.1-16.8-1.7-3.5-3.1-3.9-6.2a52.4 52.4 0 0 0 -1.9-7.5s-8.2 10.6-8.3 11.5 1.8 9 5.1 10.2c3.2 1.2 7.6 1.9 11 .6 3.5-1.3 5.8-1.7 7.8-1.3 1.9.4 6.4 5.9 8.3 5.9s9-.8 10.7-3.8z" fill="#004366"/><path d="m1775.378 458.125s-3.5-5.2-5-7.1-3.2-5.6-4.5-5.7-2.5-1-2.3-1.8c.2-.9 1.6-1.4 3-1.2a13.184 13.184 0 0 1 3.5 1.4 18.255 18.255 0 0 1 3.9-3.1c1.8-.9 3.5-3.7 3.5-3.7s5.4 7.8 5.8 10.4-3.7 10.6-3.7 10.6z" fill="#a5966a"/><path d="m1827.878 480.325c-2.4-3.2-23.1-14.7-28.1-17.9s-16-9.9-16-9.9l-3.7-1.7a2.223 2.223 0 0 0 -3.2 0c-1.9 1.5-24.2 19.9-26.6 21.8s-5.4 4.8-5.4 4.8-11.5 1.5-13.8.2c-2.4-1.3-12.8-5.8-16-4.8a8.546 8.546 0 0 0 -5.4 9.1c.6 4.1 9.1 30.1 10.8 33.3s7.6 23.8 6.7 29.6-3.2 24.6-2.4 24.6c.9 0 16.6.4 25.3-1.7a74.467 74.467 0 0 1 20.3-2.4c5.8 0 13.2-2.4 13.2-2.4s.9-33.7 0-39.8-.6-18.8-.6-18.8a104.162 104.162 0 0 1 18.2-7.8c9.3-2.8 21.4-6.9 24.4-9.1s4.7-3.9 2.3-7.1zm-30.9.4a109.094 109.094 0 0 1 -16.4-1.1c-5.6-.9-14.3.4-14.3.4l19-15.6s3 1.9 6.3 3.9c3.2 1.9 12.8 10.8 12.8 10.8-.3 1.4-2.9 1.6-7.4 1.6z" fill="#e62456"/><path d="m1778.678 451.025a10.641 10.641 0 0 0 4.5-3.7c1.8-2.6 8.8-21.6 10.2-23.4s2.4-.2 2.4-.2 4.2-5.2 5.4-4.9c1.1.3 1.8.6 1.1 1.8-.6 1.1-1.5 2.4-1.5 2.4s3.2-4.9 4.2-4.9 1.6.2 1.6 1a32.6 32.6 0 0 1 -1.8 4.9s1.9-2.4 2.8-2.4.8 1.6.5 2.4-7.1 9.9-8.4 12.2-2.6 5.8-2.1 7.1a2.626 2.626 0 0 0 4.1.6c1.3-1.3 4.5-6 5.5-6s2.8.2 1.5 2.3-8.1 10.1-10.1 11.5-4.5 3.9-6.2 3.9-7.6 3.7-7.6 3.7-6.4-6.2-6.1-8.3z" fill="#a5966a"/></g><path d="m891.578 569.025-74.3 17.3v-67.3l74.3 8.5z" fill="#7165da"/><g clip-path="url(#b)"><path d="m860.078 517.725h45.9v63.8h-45.9z" fill="#6cf"/></g><g clip-path="url(#b)" fill="#a5966a"><path d="m853.578 561.825c-9.5 1.4-19.9 3.2-28.8 4.6v-1.8h1.2c0-.6-.2-1.1-.2-1.7.6 0 1.3-.2 1.9-.2v-1.2c5.4-1.1 16.5-2 23-3.5v1.2c.6 0 1.1-.1 1.7-.1v1.3h1.2z"/><path d="m851.878 544.525h-24.5v-.9l.1-.1c.8-.4 1.7-.7 2.5-1.1 2.8-1.2 5.6-2.3 8.4-3.5.4-.2.7-.3 1.1-.5h.2c1.4.6 2.7 1.1 4.1 1.7 1.7.7 3.5 1.5 5.2 2.2.9.4 1.8.8 2.7 1.1.1 0 .1.1.1.2a2.769 2.769 0 0 1 .1.9z"/><path d="m840.978 546.525h2.6c.1 3.5.3 8.5.4 12.1-1.1 0-2.2.4-3.2.4 0-3.5.1-8.9.2-12.5z"/><path d="m835.678 546.525h2.3c.1 0 .2 0 .2.2 0 1.4.5 12.5.5 12.6-1.1 0-2.3.2-3.4.2.1-3.5.3-9.4.4-13z"/><path d="m830.378 546.525h2.5c.1 3.5.5 9.8.6 13.3-1 0-2.5.5-3.6.5.2-3.5.4-10.2.5-13.8z"/><path d="m848.778 546.525c.1 3.5.4 7.8.5 11.3-1 0-2.4.4-3.4.4.1-3.5.3-8.2.4-11.7z"/><path d="m829.678 546.125v-1.4h19.9v1.4z"/></g><g clip-path="url(#b)" fill="#a5966a"><path d="m887.078 556.125c-7.3 1.1-15.4 2.5-22.2 3.5v-1.4h.9c0-.4-.1-.8-.1-1.3.4 0 1-.1 1.4-.1v-.9c4.2-.8 12.8-1.6 17.8-2.7v.9c.4 0 .9-.1 1.3-.1v1h.9z"/><path d="m885.778 542.725h-18.9v-.7l.1-.1c.6-.3 1.3-.5 2-.8 2.2-.9 4.3-1.8 6.5-2.7a3.552 3.552 0 0 0 .9-.4h.2c1.1.4 2.1.9 3.2 1.3 1.3.6 2.7 1.1 4 1.7l2.1.9a.1.1 0 0 1 .1.1 1.078 1.078 0 0 0 -.2.7z"/><path d="m877.278 544.325h2c.1 2.7.2 6.6.3 9.3-.8 0-1.7.3-2.5.3.1-2.7.1-6.9.2-9.6z"/><path d="m873.278 544.325h1.8c.1 0 .1 0 .2.1 0 1.1.4 9.6.4 9.8-.8 0-1.8.1-2.6.1-.1-2.7.1-7.3.2-10z"/><path d="m869.178 544.325h1.9c.1 2.7.4 7.5.5 10.3-.8 0-2 .4-2.8.4.1-2.8.3-8 .4-10.7z"/><path d="m883.278 544.325c.1 2.7.3 6 .4 8.7-.8 0-1.8.3-2.6.3.1-2.7.2-6.3.3-9.1a12.751 12.751 0 0 0 1.9.1z"/><path d="m868.578 544.025v-1h15.4v1z"/></g><g clip-path="url(#b)"><path d="m840.078 574.325-.1-12.9" fill="none" stroke="#6cf" stroke-miterlimit="10" stroke-width="3"/><path d="m843.078 562.225-3.2-5.4-3.1 5.5z" fill="#6cf"/></g><g clip-path="url(#b)"><path d="m873.878 561.825-6 7.7" fill="none" stroke="#5140b5" stroke-miterlimit="10" stroke-width="3"/><path d="m865.978 566.925-.9 6.2 5.9-2.4z" fill="#5140b5"/></g><g clip-path="url(#b)"><path d="m879.378 560.625 6.5 4.3" fill="none" stroke="#5140b5" stroke-miterlimit="10" stroke-width="3"/><path d="m883.378 567.025 6.2.3-2.8-5.6z" fill="#5140b5"/></g><path d="m910.578 616.425s.9.4 1 .8c.1.5.4 2 .5 2.7s.8 1.5.3 2.1a3.625 3.625 0 0 1 -3.3.7c-1-.4-2.5-1.3-3.1-1.4a7.3 7.3 0 0 1 -3-1.6 3.334 3.334 0 0 1 -.7-2.3c.1-.9.3-1.5.9-1.5a18.212 18.212 0 0 0 3.3.1 7.117 7.117 0 0 1 2.1-.4 5.7 5.7 0 0 1 2 .8z" fill="#004366"/><path d="m917.978 612.425s-1.3-.1-1.8-.1-1-.1-1.2.4a2.423 2.423 0 0 0 -.2 2.1c.4 1 1.6 1.3 2 1.7s.6 1.6 1.1 2.1a3.989 3.989 0 0 0 2.5.7c.5-.1 1.1-.5 1.1-1a20.952 20.952 0 0 0 -.6-3.1c-.2-.7-.1-1.3-.9-1.6a16.607 16.607 0 0 1 -2-1.2z" fill="#004366"/><path d="m917.278 610.325s-.3 2.4-.3 3.1.7 1.6 1.2 1.6a3.649 3.649 0 0 0 2-.6c.1-.4-.1-3.5-.1-4-.1-.4-2.8-.1-2.8-.1z" fill="#6cf"/><path d="m907.778 613.225a15.6 15.6 0 0 0 0 3.8c.3.9.4 1.2 1.3 1a3.63 3.63 0 0 0 1.9-1.1 25.3 25.3 0 0 0 .1-3.8z" fill="#6cf"/><path d="m903.878 579.025a50.474 50.474 0 0 0 .1 6.6c.4 3 2 10.8 1.9 11.9-.1 1.2.9 9.3.9 11.3s-.4 5.2-.4 5.2a6.531 6.531 0 0 0 2.5.9c1 0 3.3-.1 3.3-.1s.7-8.5.7-9.4-.5-5.6-.5-6.7.4-6 .4-6a11.819 11.819 0 0 0 .7 3.1 12.471 12.471 0 0 1 1.4 4.1c0 1 .6 3.8.9 5.7a44.033 44.033 0 0 1 .4 6.2 7.418 7.418 0 0 0 2.8.4 12.2 12.2 0 0 0 2.2-.5s-.1-7.9-.1-9.1a24.884 24.884 0 0 0 -1-6.1 16.15 16.15 0 0 1 -.9-5.1c.1-1.5-.9-5.9-.4-7.4a15.911 15.911 0 0 0 .9-4.2c-.1-1-.3-3.3-.3-3.3l-6.3-2.8-8.5 4z" fill="#51dcad"/><path d="m911.678 549.525.5-.8a.976.976 0 0 0 .5-.6c.2-.5 1.5-3 1.5-4a7.3 7.3 0 0 0 -1.1-3.8 5.482 5.482 0 0 0 -3.1-1.6 21.725 21.725 0 0 0 -3.6 1.2c-.9.3-1.8.5-1.8 1 .1.5-.2.8.1 1a2.829 2.829 0 0 0 .6.3l.6 4.3 2.8 2.6z" fill="#a5966a"/><path d="m912.978 550.725a4.467 4.467 0 0 1 -.7-1.4 1.452 1.452 0 0 0 -.1-.6s-1.8.3-2.4-.3a13.1 13.1 0 0 1 -1.2-2.8c-.2-.5-.8-1.8-1.2-1.4s-1 1.6-1.2 1.2a5.547 5.547 0 0 0 -.3-1.7c-.3-.6-.5-1.7-.6-1.3s-.9 2-.7 2.3a1.247 1.247 0 0 1 .3 1.2c-.1.5-.8 1.3-.8 1.6.1.3.4.3.6.5s0 .4.1.5 0 .1 0 .1l.2.3a.37.37 0 0 0 -.2.3c0 .2.3.1.3.5s-.3.7 0 .9a1.978 1.978 0 0 0 1.4.5c.6 0 3.4.3 3.4.3z" fill="#6cf"/><path d="m919.578 563.425 2.3 2.2a11.118 11.118 0 0 0 -.9 2.4 6.755 6.755 0 0 1 -.7 2.6 12.165 12.165 0 0 1 -2.3 2.8c-.2.1.8 2.3.8 2.3s1.7-1.4 2.4-2.1 2.6-2.9 3-3.4 1.6-3.4 2-3.7c.3-.3.7-.8.3-1.2s-1.7-2.7-2.2-3-1.5-1.1-1.5-1.1z" fill="#6cf"/><path d="m919.378 576.325s-.4-1.2-.7-2.4-.7-1.7-.5-3c.2-1.2.7-6 1.1-6.4s1.5-.8 2.5-1.6 1.7-1.4 1.5-1.8-2.6-2.7-3.3-3.7-1.7-3-3-4.1a21.325 21.325 0 0 1 -2.7-2.2 2.854 2.854 0 0 0 -1.5-1c-.7-.1-3-.4-3.7-.1s-.3.6-1.2.9-1.9.2-3.1 1.3-3.5 4.9-3.5 5.7 2.8 3.9 2.8 3.9.2-.4.7 2c.4 2.4 0 3.9-.2 6.1a71.757 71.757 0 0 1 -1.2 7.4c-.3 1.2-.4 1.4-.3 2s0 .7.5.6 2.6-2.2 4-2.8c1.5-.7 4.7-.2 6.4 0a7.222 7.222 0 0 0 3.1-.1c.8-.2 2.1-.2 2.3-.7z" fill="#5140b5"/><path d="m903.678 562.925a12.428 12.428 0 0 0 1.7-2.4c0-.4-.4-2.2-1.6-2.6s-1.9-.4-2.4.1-2.1 3.3-2 4.8a25.225 25.225 0 0 0 1.5 5.9 23.215 23.215 0 0 1 1.8 3.9c.2 1 .7 3.4 1.1 3.4a12.842 12.842 0 0 0 2.1-.7c.6-.2 1.5-.5 1.7-1.2a4.111 4.111 0 0 1 1.4-1.9c.5-.2 1.4-.9 1.1-1.1s-.4-.4-1-.1c0 0-1.2 1.1-1.7 1.1s-1.1.1-1.4-.2l-.7-.7s-.2-2.4-.4-3.6c-.4-1.1-1.3-3.7-1.2-4.7z" fill="#6cf"/><path d="m1186.578 574.325h369.5v67.3h-369.5z" fill="#6cf"/><path d="m1278.578 557.325h-184.7l92.7 17h369.5z" fill="#7165da"/><path d="m1093.878 557.325v34.5l92.7 49.9v-67.4z" fill="#4fa6c0"/><path d="m1265.478 400.325-7.2 3.9v164.1l7.2.7z" fill="#5140b5"/><path d="m1265.478 400.325h8.3v168.7h-8.3z" fill="#a5966a"/><path d="m1451.478 400.325-7.2 2.3v165.7l7.2.7z" fill="#5140b5"/><path d="m1451.478 400.325h8.3v168.7h-8.3z" fill="#a5966a"/><path d="m1216.278 427.225-5.8 3.1v132.3l5.8.6z" fill="#5140b5"/><path d="m1216.278 427.225h6.7v136h-6.7z" fill="#a5966a"/><path d="m1093.878 591.825v16.2l18.1 13.1h36.4z" fill="#5140b5"/><path d="m1235.078 449.825h140.1v9.5h-140.1z" fill="#004366"/><path d="m1317.478 393.025v83l27.8-5.7v-90.3z" fill="#4fa6c0"/><path d="m1345.278 380.025h41.7v90.3h-41.7z" fill="#6cf"/><path d="m1317.478 476.025h69.5v-5.7h-41.7z" fill="#004366"/><circle cx="1390.978" cy="478.325" fill="#5140b5" r="33.4"/><circle cx="1405.978" cy="478.325" fill="#51dcad" r="33.4"/><path d="m1347.635 514.14h69.999v6h-69.999z" fill="#7165da" transform="matrix(.53960862 -.84191599 .84191599 .53960862 201.164 1402.147)"/><path d="m1280.478 492.125-4.5-3.9 61-72.8 4.5 3.9z" fill="#7165da"/><circle cx="1405.978" cy="478.325" fill="#5140b5" r="12.5"/><path d="m1352.578 541.925h38.3v25.8h-38.3z" fill="#51dcad"/><path d="m1321.278 541.825v23.5l31.3 2.3v-25.8c0 .1-11.9 0-31.3 0z" fill="#4fa6c0"/><path d="m1335.578 410.625h170.5v13.5h-170.5z" fill="#004366"/><path d="m1235.078 449.825v9.4l100.5-35.1v-13.5z" fill="#51dcad"/><path d="m1506.078 424.125-9.2 3.1h-161.3l-88 30.1h69.9v1.9h-82.4l100.5-35.1z" fill="#5140b5"/><path d="m1310.078 456.825-4 4.7-6.6-1.4 4-4.8z" fill="#7165da"/><path d="m1329.978 503.925s3.4 8.5 2.8 13.8-2.3 10.2-8.4 12.1c-6.2 1.9-11.5.9-19.6 5.4-8.1 4.4-7.1 6-14 12.6-7.6 7.3-11.1 12.4-21.2 11.2s-21.3-7.2-24.5-18.7c-3.1-11-8.5-26-7.1-33.6.9-4.8 4.9-16.1 14.1-18.4s10.1-2.9 17.2-2.2 15.3 3.3 21.2.9 13.6-7.3 17.9-7.7 10.3-.3 13.7 6.6 7.9 18 7.9 18z" fill="#004366"/><path d="m1403.078 474.825-.3-.9-1.4-.4-.4-1.2 1.7-1 1.5.3.3.9-.8.9.5 1.1z" fill="#6cf"/><path d="m1407.978 473.225-.3-1-1.4-.3-.4-1.3 1.7-1 1.5.3.3 1-.8.9.5 1z" fill="#6cf"/><path d="m1397.978 476.525-.3-.9-1.4-.4-.4-1.2 1.7-1 1.5.3.3.9-.8.9.5 1.1z" fill="#6cf"/><path d="m1407.778 485.625.4 1 1.3.3.5 1.3-1.7 1-1.5-.3-.3-1 .7-.9-.4-1z" fill="#6cf"/><path d="m1402.878 487.325.4.9 1.3.4.4 1.2-1.6 1-1.5-.3-.3-.9.7-.9-.4-1.1z" fill="#6cf"/><path d="m1412.878 483.925.3 1 1.4.3.4 1.3-1.7 1-1.4-.3-.3-1 .7-.9-.4-1.1z" fill="#6cf"/><path d="m1337.978 506.725s3.4 8.5 2.8 13.8-2.3 10.2-8.4 12.1c-6.2 1.9-11.5.9-19.6 5.4-8.1 4.4-7.1 6-14 12.6-7.6 7.3-13.4 10.4-23.5 9.2s-17.1-8-21.4-18.5-8.1-23.1-7.9-31.8c.1-4.9 4.9-16.1 14.1-18.4s10.1-2.9 17.2-2.2 15.3 3.3 21.2.9 13.6-7.3 17.9-7.7 10.3-.3 13.7 6.6 7.9 18 7.9 18z" fill="#6cf"/><circle cx="1311.478" cy="511.025" fill="#004366" r="10.3"/><path d="m1322.378 518.225s-2.3 11.2-12.5 16.2-12.8 3.3-15.3.5-4.6-11.4-.2-13.6a21.294 21.294 0 0 1 7-2.4s3.4 6 11.7 4.6c7.9-1.2 9.3-5.3 9.3-5.3z" fill="#004366"/><path d="m1292.278 533.525-9.2-27.3-4.9 1.6 2.8 14.3 6.3 13.1z" fill="#004366"/><path d="m1318.378 503.525 76.7-23.7 1.9-3.2 15.2-5.9 3.6 4.2 1.3 3.8-.3 4.8-15.7 4.5-3.9-1.6-76.8 27.9z" fill="#004366"/><path d="m1315.978 495.125-5.9-.5 3.3-48.1 6.2-3.2z" fill="#7165da"/><path d="m1308.378 477.325h11.2s-.4 3.2.9 5.2c1.3 1.9 6 6.9 6.4 7.9a9.286 9.286 0 0 0 1.9 3.1 13.461 13.461 0 0 1 1.9 2.7c.5.8 2.3 1.6 2.1 2.1a1.789 1.789 0 0 1 -2.2 1.1 6.43 6.43 0 0 1 -4-2.2c-1-1.2-2-2.9-3.2-3a2.657 2.657 0 0 0 -2.4 2.2 27.591 27.591 0 0 0 -.3 5.3c.1 1.9.3 9.8.2 11-.1 1.3-.7 2.7-1.6 2.7a1.537 1.537 0 0 1 -1.6-1.8c0-1.2-.3-11.3-.8-11.4s-1-.3-1 .5-.5 12.6-1.1 13.6c-.6 1.1-.8 1.3-1.5 1.3s-1.3-.1-1.3-.9.7-14.1.5-14.2-.6-.3-.8.1c-.1.4-1.1 11.4-1.4 11.9-.4.6-.9 1.1-1.6.6a2.254 2.254 0 0 1 -1-2.2c.1-.9 1.4-12.3 1.2-12.5a.569.569 0 0 0 -.9.3c-.2.6-1.7 8.6-2.3 9s-1.8.7-2-.6 1.9-10.2 1.8-10.7.4-4.8.5-5.7a57.812 57.812 0 0 1 1.8-7.9 9.253 9.253 0 0 0 .7-4.4c-.1-1-.1-3.1-.1-3.1z" fill="#a5966a"/><ellipse cx="1141.988" cy="562.067" fill="#5140b5" rx=".8" ry="4.4" transform="matrix(.08941581 -.99599438 .99599438 .08941581 480.068 1649.226)"/><path d="m1098.078 653.425s2.5 2.2 3.9 2.6 6.6 1.8 6.7 2.6a3.067 3.067 0 0 1 -.6 2.8 8.084 8.084 0 0 1 -5.4 1.7c-2.2 0-4.2-.9-5.3-.9a24.78 24.78 0 0 1 -4.9-.3c-.7-.3-1.9-1.1-1.9-2s1.1-4.5 1.1-5.2 6.4-1.3 6.4-1.3z" fill="#004366"/><path d="m1098.678 645.725s3 .3 4.3.4c1.2 0 2.5 0 2.5.8a2.944 2.944 0 0 1 -1.7 3.1 23.829 23.829 0 0 1 -5.9 1c-.4 0 .8-5.3.8-5.3z" fill="#004366"/><path d="m1141.978 561.425a17.513 17.513 0 0 0 -1.4-2.4 28.9 28.9 0 0 0 -2.5-2.4 27.461 27.461 0 0 0 -5-2c-.8-.1-3.1 0-4 0-.8 0-7.5 0-8.9.5a12.067 12.067 0 0 1 -4.5.8 66.925 66.925 0 0 1 -8.4-1c-.6-.2-3.8 3.8-3.8 3.8l.5 2.8s3.3 0 4.9-.2 4.6-.8 6.1-.8a23.937 23.937 0 0 0 5.3-.1c2.1-.4 9.5-2.9 10.6-3 1.1 0 1.5 0 1.9.6.5.6 1.3 1.3 1.8 2s1.2 2.6 1.7 2.3a.818.818 0 0 0 .5-.8 3.1 3.1 0 0 0 -.2-.7s1.4.4 1.7.1c.3-.2.5-1.4.5-1.4a1.778 1.778 0 0 1 1.3.8c.6.8 1 1.6 1.4 1.7s.6.1.7-.1c0-.4-.2-.5-.2-.5z" fill="#6cf"/><path d="m1089.678 591.025s-1.8 5.1-.4 8.3 2.7 7 2.6 9.6-.1 9.4-.4 12.1-2.6 14.2-2.5 20.3-.9 11.8.5 13.3 4.3 1 6.6.6c2.3-.5 2.5 0 2.6-1.4s1.1-13.3 2.1-17 3-16.3 3-19.1c.1-2.8 1.8-16.2 2.9-19.4a53.911 53.911 0 0 0 1.6-6.9z" fill="#a5966a"/><path d="m1108.378 591.425s-.2-9.1-.4-11.8-1-9-1.7-12.3c-.6-3.2-1.2-7.2-1.2-7.2s2.4-2.3 2.6-3.9l.2-1.6s-4.3-2.5-6.3-2.5c-1.9 0-10.6-.2-11.6 0s-3.9 2.8-3.9 2.8-4.2 3.9-4.2 4.7 2.2 6.3 3.3 7.1 1.3-.2 2.5 3 3 9 2.6 11.3-2.9 9-2 10.2 5.2 2 9.8 2 7.5.1 8.8-.4a2.239 2.239 0 0 0 1.5-1.4z" fill="#5140b5"/><path d="m1102.578 534.225s1.2.8 1.3 1.5a12.463 12.463 0 0 1 .2 3.4c-.1.9-.5 1.5-.4 1.9.2.7 2.1 2.2 1.6 3s-.9.7-.9.7a1.35 1.35 0 0 1 .1 1c-.2.3-.2.4-.2.4s.2.1 0 .6c-.1.2-.5-.1-.2.7.3.7-.2 2-.8 2s-2.5-.4-3 .5-2 5-2 5a44.978 44.978 0 0 1 2.3 3.9c.6 1.3.4 2.8-.1 2.8a37.693 37.693 0 0 1 -4.7-4.9 36.557 36.557 0 0 0 -4.6-5.1c-1.1-1-.8-9-.8-9l3.1-6.5z" fill="#6cf"/><path d="m1104.478 535.425c.1.9.2.9-1 2.1s-4.6.9-4.7 2c-.1 1.2-1.2 2.4-1.8 2s-.8-1.5-1.9-1.2c-.6.2-1.3 1.5-.4 3.6s-.2 3.4-.5 5.5a4.74 4.74 0 0 1 -3.5 3.8 24.079 24.079 0 0 0 -4.6 1.8s-1.2-3.4-.6-5.2.9-2.2 1.7-4.3c.8-2.2-.4-4.1.8-6 1.2-2 .5-2.8 1.7-4.4s2.2-1.8 3.8-2.5c1.7-.7 4.2-.1 5.4-.2 1.2-.4 5.6 2.1 5.6 3z" fill="#7165da"/><path d="m1088.578 564.025s-6 5.5-6.8 6.4-1.5 1.7-1.5 1.7 5.3 2.8 7.7 3.3 5 1 6.9 2.5a22.78 22.78 0 0 1 3.8 3.6c.4.6.8 1.2.4 1.4s-1-.1-1.7-.8-1.8-1.5-1.8-1-1 3.5-1 4.5.3 2.5 0 3c-.3.4-.9.6-1 .1s-.4-2.7-.4-3.1-.9 1.9-.9 2.7-.4 1.8-.7 1.4a3.766 3.766 0 0 1 -.4-1.4 6.293 6.293 0 0 1 -.6-1.7c0-.5.4-2.5.4-3.6s.3-2-.1-2.6-1.6-2-2.9-2c-1.3-.1-7.5-.7-8.9-1.1a46.081 46.081 0 0 1 -5.4-1.6 3.049 3.049 0 0 1 -.9-3.1c.4-1.3 4.6-7 6.6-9.3s3-4.2 3.8-4.5c.9-.2 3.1-.4 4.1.9 1.2 1.4 2 3.7 1.3 4.3z" fill="#6cf"/><path d="m609.578 453.925h187v170.4h-187z" fill="#4fa6c0"/><path d="m616.578 484.325h169v110.3h-169z" fill="#004366"/><path d="m624.378 495.225h153.9v88.8h-153.9z" fill="#51dcad"/><g clip-path="url(#c)"><path d="m667.378 482.725 30.3 4.9s-6.1 10.4-6.1 18.7 4.5 15.3 10 26.4-.3 19.4-1.5 22.2 0 4.9 4.8 9.7c4.8 4.9 4.2 6.2 3.6 10.4s20.6 9.7 21.8 14.6-92.1 4.9-92.1 4.9l8.5-44.4 21.2-70.7" fill="#e62456"/></g><g clip-path="url(#c)"><path d="m641.078 595.125s4.2-11.8 9.1-33.3c4.8-21.5-1.2-23.6.6-29.8s15.7-15.3 15.7-20.8c0-5.6 4.2-25 4.2-25l-54.2-1.9-.7 115.7z" fill="#6cf"/></g><g clip-path="url(#c)"><path d="m723.078 595.425s16.4-18.7 15.1-27.7c-1.2-9-4.2-16 1.2-25.7 5.5-9.7 16.4-43 16.4-52s27.3-4.2 27.3-4.2-1.8 45.8-1.2 47.9 0 52.7 0 52.7-21.2 12.5-23.6 13.2c-2.5.7-35.2-4.2-35.2-4.2z" fill="#7165da"/></g><path d="m849.778 624.325-589.8-15-259.978 23.688v131.312h601.478z" fill="#c4204e"/><path d="m0 764.325h601.478v31.3h-601.478z" fill="#004366"/><path d="m849.778 624.325-248.3 140v31.4l248.3-158.8z" fill="#4fa6c0"/><path d="m547.078 385.225-190.2 4.4v237.5l190.2 32.4z" fill="#a5966a"/><path d="m542.378 382.325v279.6l-185.5-34.8v-237.5z" fill="#fff"/><path d="m538.078 379.925-181.2 9.7v237.5l181.2 36.2z" fill="#a5966a"/><path d="m532.878 378.025v288.6l-176-39.5v-237.5z" fill="#fff"/><path d="m528.078 374.225-171.2 15.4v237.5l171.2 43.8z" fill="#a5966a"/><path d="m522.878 370.625-166 19v237.5l166 47.2z" fill="#fff"/><path d="m129.878 379.325 199.7-2.5v256.5l-199.7 34z" fill="#a5966a"/><path d="m134.878 376.325v293.5l194.7-36.5v-252.3z" fill="#fff"/><path d="m139.378 373.825 190.2 7.2v252.3l-190.2 38z" fill="#a5966a"/><path d="m144.878 371.825v303l184.7-41.5v-252.3z" fill="#fff"/><path d="m149.878 367.825 179.7 13.2v252.3l-179.7 46z" fill="#a5966a"/><path d="m155.378 364.025 174.2 12.8v256.5l-174.2 49.5z" fill="#fff"/><path d="m356.878 379.025 156.9-16.7v320l-156.9-55.2z" fill="#a5966a"/><path d="m347.578 624.325-186.6 62 .1-323.5 195.8 16.2z" fill="#a5966a"/><path d="m356.878 379.025v249.3l-169.3 75.4v-364.7z" fill="#fff"/><path d="m290.578 475.825-86.6 5.9v-113.4l86 12z" fill="#f4e2be"/><path d="m497.078 655.325-103.1-32.3v-68.7l103.1 23.4z" fill="#bcaa7d"/><path d="m372.578 689.825a5.236 5.236 0 0 0 -.3 1.9 21.109 21.109 0 0 0 .3 4.9 11.626 11.626 0 0 1 .5 4.3c-.1 2.7-1 6.5-.8 8.7s.2 3.5.9 4c.7.6 2.2 1.1 4.9.9s3.9-.2 4.8-1.2 1.7-3.5 2.8-4.3a13.448 13.448 0 0 0 3.2-3 20.964 20.964 0 0 0 .7-5.8 7.671 7.671 0 0 0 -2.4-4.6c-1.3-1.1-2.1-1.8-2.8-1.8h-1.9s-.1-3.3-.7-4.2c-.6-1-1-2-2.2-2-1.1-.2-7 2.2-7 2.2z" fill="#5140b5"/><path d="m317.878 685.625a.659.659 0 0 0 -.9.3 7.594 7.594 0 0 0 -.9 1.5 9.014 9.014 0 0 0 -2.6.7 6.2 6.2 0 0 0 -2.9 3.6c-.9 2.2-1.5 3.6-1 6s.8 3.2 2.3 4.2a4.947 4.947 0 0 1 2.1 3.6 4.787 4.787 0 0 0 2.5 3.3 10.118 10.118 0 0 0 5.4.4c1.2-.4 2.7-1.1 2.7-1.9 0-.7.3-10.1.8-11.7a20.8 20.8 0 0 0 .3-6.6c-.2-1.6-.4-3.1-1.3-4.1-1.1-.7-6.5.7-6.5.7z" fill="#5140b5"/><path d="m354.078 615.725s2 8.1 2 10.5 1.7 11.8 2.7 13.9 4.5 7.9 4.5 10.1c0 2.1 1.1 17.6 2.8 22.4s6.1 15.9 6.4 17.2.1 2.6 1.3 2.8c1.1.3 6 0 6.1-1.1s.1-11.6.1-15.3-.9-19-2-22.7-3-11.8-3.8-16.7c-.9-5-2-11.4-1.8-13.8s-.1-9.4-.1-9.4z" fill="#6cf"/><path d="m319.978 615.225s.2 10 .1 12-1 8.5-1.5 10.8c-.5 2.4-3.3 14.1-3.6 17.8a55.841 55.841 0 0 0 .2 12.9c.7 3.9 2.3 11.8 2.3 13.7 0 2-.5 4.1.4 5.3.9 1.1 5.3 1.2 5.8.6s.6-.9.8-2.8 3.7-15.9 4.1-18.9.8-17 2.3-20.7c1.4-3.7 4.4-10.1 4.7-12.2s1.9-14.9 2.7-18.1-18.3-.4-18.3-.4z" fill="#6cf"/><path d="m374.078 502.625s5.3.4 10 .8a174.343 174.343 0 0 0 19.2-.2c4.2-.3 7.8-1.5 9.3-2.7 1.4-1.1 1.7-1.9 1.7-2.9s-4.1-8.8-5.1-10.5c-.9-1.8-10.1-14.5-10.1-15 0 0 .5-3.2.6-4.6s-.3-5.3.4-6.4 3.8-6.1 3.8-6.6c0-.6-.6-1.3-1.2-1s-2.1 2.9-2.8 3.7-1.4 3.1-1.7 2.9.2-2.5 1-4.2a20.342 20.342 0 0 0 1.6-4.4c-.1-.2-.5-1-1.1-.6a7.565 7.565 0 0 0 -1.4 1.6s-.3-.2-1.2.5-1.2 1.7-1.9 2.5a6.971 6.971 0 0 0 -1.7 2.4c-.5 1.1-.8 2.3-.8 1.7s.7-4.7.7-5.1-.8-.8-1.2-.5-1.5 4.5-1.8 5.6-.3 4.5-.6 5.5-.2 2.1-.4 1.7-1-2.4-1.6-2.4-1.3-.1-1.3.6 1.3 3.7 1.4 4.3a12.522 12.522 0 0 0 2 3.3c.8 1 1.5 1.9 2.1 2.8s1.9 3.4 3 5a31.91 31.91 0 0 1 3.1 6.1c.3 1.1 1.6 5.6 1.6 5.6s-7.8-.2-10.5-1.3-7.6-3.6-8.6-3.7-6.5 15.5-6.5 15.5z" fill="#6cf"/><path d="m316.878 488.325s-6-9.1-6.9-10.5-4.1-9.5-4.7-10.9-2.7-4.2-2.9-5.6a36.546 36.546 0 0 1 .6-9.3c.7-3.2 4.7-18.2 4.5-19a22.6 22.6 0 0 1 -1.1-6.4c.1-2.6.4-6 0-7.9-.4-2-1.9-6.1-1.3-6.6.5-.5 1.2-.3 1.3.2s2 6.2 2 6.2.1-4.5 0-5.8c-.1-1.2-.9-3.3-.8-3.9s1-.6 1-.6-.3-1.1.2-1.4.7-.6 1.2.3a34.523 34.523 0 0 1 1.8 6.4 18.066 18.066 0 0 0 .6 2.8s.1-3.8.1-4.6-.7-3 .1-3.3 1.7 3.4 1.9 5.4-.1 8.2.5 8.1 1.7-3.6 2.4-3.6.5.4 0 2.5-.9 4.4-1.5 7.1-2.1 7.7-2.7 11.5c-.6 3.7-2.3 17.9-1.8 19.4s5 6.9 5.8 8.8c.6 1.5 4.8 5.7 5.5 6.1.7 0-5.8 14.6-5.8 14.6z" fill="#6cf"/><path d="m340.278 459.425s-3 1.8-3.3 3.2-2.1 8.3-1.8 9.4 3.7 2.6 3.4 4.3 1 3.4-.1 5.4c-1.1 1.9.1 2.3.3 2.9.1.6 3.2 4 5.1 4a16.8 16.8 0 0 0 7-2.5c1.4-1 2.2-1.7 2.2-1.7a3.987 3.987 0 0 1 -1.5-3c0-1.9 2.5-21.9 2.5-21.9z" fill="#6cf"/><path d="m322.678 558.425a105.867 105.867 0 0 0 -3.6 13.8c-.8 5.4-1.5 23.5-1.5 26.8s-1.1 15.3.1 16 6.9 5.1 10.6 5.1a27.2 27.2 0 0 0 9.8-1.9c1.5-.8 6.9-17.9 7.4-18.7a1.709 1.709 0 0 1 2.8.8c.4 1.4 3.4 14.5 4.4 15.6s9.9 1.8 14.6.8 5.8-1.4 5.9-2.8 1.5-20.8 1.8-24.1-1.9-19.4-2.5-20.9-3.3-7.3-3.3-7.3z" fill="#7165da"/><path d="m343.278 482.125-5 .7a13.809 13.809 0 0 1 -6.1-1.5c-2.5-1.5-5.9-5.5-7.2-6.7a19.053 19.053 0 0 0 -3.4-2.3 4.907 4.907 0 0 0 -4.5 3.6c-1 3.4-2.1 13.9-1.8 14.6a35.727 35.727 0 0 1 5.2 11.1 42.559 42.559 0 0 1 .8 15.8c-.4 3-2.2 16.9-3.4 22.8s-3.3 14.6-2.6 15.7 9.5 5.5 20.2 7.3 27.5 4.3 30.6 4.1c3-.1 6.3-1.1 6.1-1.5-.3-.4-3.4-15.7-3.4-24.1s-.7-22.8.8-26.3c1.5-3.4 4.3-6.3 4.4-6.9s5.4-12.9 6.3-16.2 1.9-6.5 1.4-6.5-17.8-2.3-21.1-2.5c-3.3-.1-7.4-2.3-9.1-2.1-1.6.4-8.2.9-8.2.9z" fill="#e62456"/><path d="m355.278 448.525s-3.3-2.8-8.3-.3-8.3 8.5-8.3 9.1-.6 3.3.7 4.8a3.88 3.88 0 0 1 1.1 2.5l1.4-3.9s-1 2.5-.1 3.3c.8.8 2.9 1 2.9 3 0 2.1-1.8 8-.4 10.6s3.9 4.5 5.9 4.5a14.72 14.72 0 0 0 6.2-1.7c1.8-.8 6.5-4.4 6.5-5.2a8.454 8.454 0 0 1 -1.4 5.1c-1.8 2.8-4.3 7.4-5.2 7.6-1 .1 2.1 0 2.3-.4.3-.4-1.9-.4-1.2 3.4.7 3.9 3 6.3 3 8.4s-2.3 3.6-2.3 3.6 3 0 3.4-.7-1.7 1.2-.4 4a12.389 12.389 0 0 0 4.1 4.7s-1.4-1.7 1-5 2.8-5.4 2.8-7c0-1.7 2.1 2.1 2.1 2.1a18.161 18.161 0 0 1 1-6.2c1.1-2.8 2.8-9.1 2.8-12s-1.1-7.6-3.3-10.2a36.02 36.02 0 0 0 -4.3-4.3s1.5-4.3.7-6.9-4.7-9.5-6.7-10.9a38.44 38.44 0 0 0 -6-2z" fill="#004366"/><path d="m694.078 647.525s1.2.6 1.3 1.4.1 10.7.3 12c.2 1.2 1.7 3.6 1.6 5.4a10.883 10.883 0 0 1 -.6 3.5 2.908 2.908 0 0 1 -1 .5s0 1.8-.6 2.3c-1.3 1-18.8.4-19.8.1s-2.2-.5-2-2.1a2.672 2.672 0 0 1 1.8-2.3c.5-.3 6.6-3.3 7.4-4.2.8-1 1.5-6.7 1.4-8a12.638 12.638 0 0 1 .5-5c.5-.6 3.1-1.2 3.4-1.3.2-.2 6.3-2.3 6.3-2.3z" fill="#51dcad"/><path d="m680.278 623.725c0 .3.5 4.3.9 6 .4 1.6 3 20.1 3.2 21.3.2 1.3.6 2.2 1.6 2.3 1.1.1 5.7 1 6.2 0a10.863 10.863 0 0 0 .6-3.2s1.6.1 1.8-.6 2.8-11.5 3.1-14.8a93.564 93.564 0 0 0 0-12c-.2-.5-17.4 1-17.4 1z" fill="#004366"/><path d="m677.678 510.525s-.3 1.9-.5 2.8a16.931 16.931 0 0 0 0 4.5c.2 1 1.1 5 2.3 5.1s2.6-.2 2.8.3a19.065 19.065 0 0 1 .5 2.1l10.7-2.1-2.4-11.9s-7-3.5-7.2-3.4c-.3.1-6.2 2.6-6.2 2.6z" fill="#004366"/><path d="m688.878 519.525s-5.3 3.6-6.9 4.5-7.3 5.5-8 5.8-4.8 4.7-5 6.2c-.2 1.4-2.4 14.2-2.9 15.3a15.542 15.542 0 0 0 -.5 6.1c.2 2.4.2 14.1-.1 15.9s-1.4 2.9-1.1 4.5 3.4 6.5 3.4 6.5-1.5 11.6-1.7 14.1-.9 23.5-.2 24.1 4.4-1.2 4.6 0-.4 2.5 1 2.9c1.3.4 19.8 1.2 21.9.5s10.1-3.9 10.4-4.9c.3-1.1-.7-41.8-1.2-43.4s-2.4-12.6-2.4-13.6 3-10.5 3.6-12.5 2.6-13 2.3-15.3a15.687 15.687 0 0 0 -2.7-6.2c-.7-.8-6.2-5.2-7-5.7-.9-.5-7.5-4.8-7.5-4.8z" fill="#a5966a"/><path d="m677.278 511.625s-.6-5.8 1.3-8.2 4.9-4.1 7.1-3.5c0 0 5.4.8 6.7 3a41.3 41.3 0 0 1 2.6 5.8c.1.5 4.4 5.7 4.8 9.3s1.5 8.2 0 10.5a16.776 16.776 0 0 0 -2.8 7.8c-.1 2.6.9 4.5-1.2 6.6a14 14 0 0 1 -4.6 3l.8-2.6s-2.2 1.8-3 2.6c-.9.8-.9-1.7-.6-3.5 0 0 .8-9.1.6-11.1-.2-1.9-.9-5-.9-6.8v-4.4s-1.7.9-2.6.4-2.3-1.8-2.3-3.1-.3-4.2-1.3-4.9c-1-.6-1.9.4-3 .3-1-.2-1.5-.3-1.6-1.2z" fill="#5140b5"/><path d="m118.578 764.325-118.578 93.308v-93.308z" fill="#c4204e"/><path d="m116.578 795.825-116.578 69.753v-7.585l118.578-94.668z" fill="#004366"/><path d="m372.078 394.725 61.3-5.1" fill="none" stroke="#bcaa7d" stroke-miterlimit="10"/><path d="m372.078 406.725 61.5-3.6" fill="none" stroke="#bcaa7d" stroke-miterlimit="10"/><path d="m372.078 420.725 62.3-2.1" fill="none" stroke="#bcaa7d" stroke-miterlimit="10"/><path d="m372.078 434.225 62.6-1.9" fill="none" stroke="#bcaa7d" stroke-miterlimit="10"/><path d="m372.078 447.725 61.5-.4" fill="none" stroke="#bcaa7d" stroke-miterlimit="10"/><path d="m419.378 472.125 76.7 1.7" fill="none" stroke="#bcaa7d" stroke-miterlimit="10"/><path d="m419.378 487.125 76.5 4.5" fill="none" stroke="#bcaa7d" stroke-miterlimit="10"/><path d="m419.578 502.125 76.8 5.5" fill="none" stroke="#bcaa7d" stroke-miterlimit="10"/><path d="m419.378 517.825 75.7 9" fill="none" stroke="#bcaa7d" stroke-miterlimit="10"/><path d="m419.378 532.325 77 13" fill="none" stroke="#bcaa7d" stroke-miterlimit="10"/><path d="m296.578 515.725-88.2 12.1" fill="none" stroke="#f4e2be" stroke-miterlimit="10"/><path d="m296.578 532.325-88 13.3" fill="none" stroke="#f4e2be" stroke-miterlimit="10"/><path d="m298.578 547.725-90.5 13.9" fill="none" stroke="#f4e2be" stroke-miterlimit="10"/><path d="m298.578 562.325-89.2 18.5" fill="none" stroke="#f4e2be" stroke-miterlimit="10"/><path d="m299.278 579.025-91 21.7" fill="none" stroke="#f4e2be" stroke-miterlimit="10"/><path d="m298.578 596.025-91 24.3" fill="none" stroke="#f4e2be" stroke-miterlimit="10"/><path d="m496.578 447.825h-49v-61.5l49-4.5z" fill="#bcaa7d"/><path d="m302.578 386.325 43.4 6.7" fill="none" stroke="#f4e2be" stroke-miterlimit="10"/><path d="m303.278 399.725 42 3.3" fill="none" stroke="#f4e2be" stroke-miterlimit="10"/><path d="m289.978 469.025h12v146h-12z" fill="#fff"/><path d="m1498.978 616.225s-2.6 6.8-2.6 8.4a20.766 20.766 0 0 0 1.4 7.8c1.2 2.6 2.5 15.4 2.5 17.5s2.6 14.2 2.6 17.1c0 3 .2 7.3.2 7.3h9.8s0-11.2.6-15.2 1.8-16.9 1.2-19.8-2.4-8-2.4-10.3 4.4-12.3 4.4-12.3l-.5-2z" fill="#fff"/><path d="m1517.778 621.325s-.4 3.9-.8 6.3c-.5 2.4-1.5 5.6-.9 7.8.6 2.1 4.2 7.6 4.8 9.9s1.5 10 3.2 17.8a91.729 91.729 0 0 1 2 17.1h9.7s2-15.2 2-20.1-1.9-17.9-3.1-20.2c-1.2-2.2-1.9-2.6-1.8-5.4s1.9-12.3 1.9-12.3z" fill="#fff"/><path d="m1547.778 578.725a71.127 71.127 0 0 1 -.4 11.2c-.7 4.8-2.4 14.4-2.4 17.3s-.5 12.9-.9 13.7c-.5.8-7.9 3.9-14 3.9s-13.6-1.8-13.9-3a52.038 52.038 0 0 1 -.5-5.5s-7.5 2.6-11.7 2.1-7.2-.4-7.2-1.9 1-17.3 1.4-20.2 2.4-12.9 3.8-14.2 45.8-3.4 45.8-3.4z" fill="#7165da"/><path d="m1480.578 477.025-.4-1.6s.1-1.6-.9-1.6-2.4-.7-2.2-2 4.7-7.9 7.5-9.8 9.3-4.4 13.2-4c3.9.5 9.4 3.9 10.8 6.8s3.3 8.1 2.8 11.4c-.6 3.2-2.2 6.9-1.5 9.8s1.9 4.5 1.5 5.7c-.5 1.2-17.5-3.4-17.5-3.4z" fill="#5140b5"/><path d="m1517.378 495.025-1.3-1.7s-4.2-1.9-5.5-3.4-3.6-3.6-3.6-5.3 1.1-6.7.4-7.4-2.2-1.8-3.7-1.2-3.1 1.8-3.1 3.3-.7 2.4-1.5 1.6c-.7-.8-1.9-4-3.2-4.4a3.887 3.887 0 0 1 -2.9-2.5c-.4-1.4-2.8-4.3-4.3-4.2s-8.4 3.2-8.6 4.8.2 7 .6 7.7c.4.6 1.8 1.4 1.9 1.9.1.6 1.8 1.1 1.8 1.8s-.5 6.1.6 6.7 2.2-.5 2.2.5c0 .9.1 2 .6 2.2l.6.2a1.147 1.147 0 0 0 .2 1.2c.5.5 1.5.4 1.5.9s.9 3.1 1.9 3.4a5.7 5.7 0 0 0 3.6-.3c1.2-.5 2.6-1.1 2.6-1.1l1.7 3.6-2.6 10.5 15.1.9 8-9.2z" fill="#fff"/><path d="m1501.778 568.025s2.3 3.6 2.3 4.9-3.6 9.4-2.7 10.4 11 5.7 14.2 5.5c3.2-.1 16.8-1.6 21-3.1s11.6-5.5 12-6.4.1-9-.7-13.9c-.9-4.9-4.7-18.5-4.7-21.5s-2.5-26-4.1-29.8-4.4-11-9.5-13.7-7.8-3.9-9.6-4.9-3.8-2.2-3.8-2.2-.4 5.9-3 9.1-6.4 7.2-8.9 7.6c-2.5.5-3.8.5-3.8-.7a23.484 23.484 0 0 1 .9-4.2l-1.4-1.8a15.179 15.179 0 0 1 -4.4 4.8c-2.6 1.6-4.3 1-6.4 5.4s-4.9 7.6-6 11c-1.1 3.3-3.2 9.2-2.5 9.7l4.8 4.1 7.5.2a75.964 75.964 0 0 1 2.8 8.9c.8 3.8 6 20.6 6 20.6z" fill="#e62456"/><path d="m1453.578 683.525h189.3v49.3h-189.3z" fill="#a5966a"/><path d="m1440.578 640.725h-121.6l134.6 42.8h189.3z" fill="#51dcad"/><path d="m1318.978 640.725v36.1l134.6 56v-49.3z" fill="#4fa6c0"/><path d="m1414.378 647.325h-18.6l98.4 23.5h24.7z" fill="#004366"/><path d="m1466.078 664.125c3-.5 8-2.5 10.8-3.2 3.2 2.1 8.7 5.6 13.8 8.8l3.6 1.1h10.2c-2.9-6.8-8-18.7-8-18.7 11.1-7.4 16.4-18.5 14.2-29.8-4.4-22-24.3-36.5-57.1-36.5s-57.8 14.4-57.8 37a31.087 31.087 0 0 0 7.4 19.7l56.3 20z" fill="#af1e4e"/><path d="m1460.778 662.825c3.2-.5 10-2.4 13-3.2 3.4 2.2 9.5 6.4 14.8 9.8l5.7 1.3h7.6c-2.8-6.5-8.5-19.9-8.5-19.9 11.1-7.4 14-16.3 12.5-25.1-4.4-26.1-23.5-37.1-56.2-37.1-32.8 0-56.9 17.6-56.9 33 0 7.3 1 16.3 14.2 28.4z" fill="#e62456"/><path d="m1492.878 538.625s-8.3 9.7-9.4 12c-1.1 2.2-6.7 11.3-9.4 14.1-2.7 2.7-12.2 11.1-14.7 13.4s-4.4 2.7-4.6 5.1-2.1 4.4-3.1 6.9a20.617 20.617 0 0 1 -2.3 4.4c-.7 1.1-1.7 2.7-2.3 2.7s-2.1-.2-1.5-2.1c.6-1.8 2.6-4.8 2.5-5.8s-1.7-3.1-3.6-2.8c-1.8.2-6.3 2.2-8.9 3.8s-4.3 3.9-5.2 3.5c-.9-.5-.9-1.1-.9-2s3.9-6.5 5.2-7c0 0 6.5-2.8 8.8-3.9s5.8-2.5 6.7-3.3 1.5-1.7 3.7-4.7 11-19 13.4-21.8c2.5-2.8 7.3-7.2 8.5-8.8s4.7-7.9 4.7-7.9a21.516 21.516 0 0 1 6.3 1 25.371 25.371 0 0 1 6.1 3.2z" fill="#fff"/><path d="m1510.378 530.625s-4.4 9.6-5.3 11.3-.5 2-2.3 4.2a116.474 116.474 0 0 0 -7.3 10.9c-3.1 4.9-13.1 20.6-14.9 22.1s-5.8 1.7-9.2 2.8c-3.5 1.1-7.5 2.5-9.2 4.3s-4.9 6-4.9 7.2.6 1.5.6 1.5-.7 1.8.6 1.8a1.894 1.894 0 0 0 2-1.1 6.767 6.767 0 0 1 2.5-2.1l.9-.4a3.154 3.154 0 0 0 2.1.1 13.685 13.685 0 0 0 2.8-1s-3.2 4.1-3.2 4.8.7 2.3 2.1 1.6 5.7-6.4 6.7-6.4 3.9-2.8 6.7-3.3a8.966 8.966 0 0 0 5.2-2.7c.9-1 2-3.9 3.3-4.7 1.4-.7 13.4-12.6 15-14.1s10-13.6 10.2-14.2a14.227 14.227 0 0 1 1.8-4.7c1.2-1.6 10.2-15 10.2-15.9s-5.3-3.1-8.8-3.2a27.317 27.317 0 0 0 -7.6 1.2z" fill="#fff"/><path d="m49.478 991.725s-1.9 2.8-4 2-6.5-5.2-7.9-4.8-6.4 4.5-7.9 7.4-4 9.1-6.9 10c-2.9 1-5 2-6.8 1.2s-4-2.3-4.6-4.1-3.8-8.3.3-16.3a77.539 77.539 0 0 1 11-15.3l-.6-1.7s5.7-10.3 8.4-11.2 4.3-1.3 6.9.2c2.6 1.4 5.6 6.3 8.2 7.8 2.6 1.4 5.2.7 8.2 1.2a8.607 8.607 0 0 1 4.6 2.2s6.3-2.7 6.6-3.2a6.473 6.473 0 0 0 0-2l8.3-5.3 6.1 14.6-1.1 20.2z" fill="#51dcad"/><path d="m100.878 1027.425 86.9-53.4 66 6.3-83 55z" fill="#6cf"/><path d="m164.978 974.425s-.9 3.2-1.2 4.9a7.839 7.839 0 0 0 .9 5.3c1 1.9 4 4.1 4.8 3.8a5.788 5.788 0 0 0 1.5-.9s2.5 1.5 3.4.3a5.08 5.08 0 0 0 .9-3.9l-.3-.8s5.1 5.8 6.2 6.1 2.6 0 2.5-.7a14.679 14.679 0 0 0 -.4-1.7 1.333 1.333 0 0 0 1.5-.3 1.68 1.68 0 0 0 .1-2.2c-.5-.5-4.1-3.9-4.1-3.9s6.4 1.8 7.1 1.4c.7-.5 1.4-.5.7-1.7-.8-1.2-9.5-4.1-9.5-4.1l-4.8-2.9-5.4-3.1z" fill="#a5966a"/><path d="m116.278 1015.825s5.9 3.1 7 4.1 4.8 3.3 6 3 8.1.3 9.3-.4a23.045 23.045 0 0 0 4.4-3.5c.1-.4 1.5-.9 1.5-1.8a4.436 4.436 0 0 0 -.6-1.9 2.685 2.685 0 0 0 0-2.1l-.4-1s.8-.8.2-1.5-3.5-.7-5.2-1.6-3.3-2.6-5.1-2.5-5.4 1.2-7 .8a7.317 7.317 0 0 1 -2.7-1.1l-9.8.3.4 5.4z" fill="#a5966a"/><path d="m134.478 945.625s2.7 20.5 2.3 26.5-4.8 22.2-7.3 23.3c-2.6 1.1-5.7 6.2-11.7 5.2-5.9-1-18-10.9-18-10.9s-3.8 12.2-5.4 14.6-4.6 8.7-14.3 7.7c-9.7-1.1-34.4-21.6-35.3-22.9-1-1.3-1-10.4 2-12.7s10.5-2.9 10.5-2.9l13 8.6 2.7 1.8s-3.4-12.8-.4-16.7 54.2-24.8 54.2-24.8z" fill="#004366"/><path d="m97.578 908.325a57.9 57.9 0 0 0 -6.6 6.7c-2.3 2.9-8.3 9.7-10.5 16s-7 9-6.9 14a71.006 71.006 0 0 1 -1.5 14.9c-.9 4.5-4.5 9-3.3 9.4s10.2-.7 13.4-1.7c3.1-1 7.5-2.5 7.5-2.5s.7 13.4 1.9 17.3c1.3 3.9 8.3 16.3 11.8 19.7s12.8 14.5 13 13.6.4-5.2 2.4-5.9a40.774 40.774 0 0 0 6.1-3.3s-4.4-4.4-5.7-8.5-7-9.2-8.1-12.6-1.8-10.4-2.6-15.2-1.2-12.7-1.2-12.7 10.2-1.5 15.4-3.7 8.1-4.5 10.5-5.6a20.38 20.38 0 0 0 4.8-3.4s6.8 2 8.6 7.6 5.4 11.6 5.8 12.8 3.1.6 4.1-1.3l1-1.9s4.2 2.1 5.1 5a85.088 85.088 0 0 1 2.1 8.9s9.1-2.5 9.8-2.7-2.5-6.7-1.6-10.5-1.7-11.7-2.6-16.8-7.9-23.3-11.8-31.2c-3.9-7.8-10.6-22.5-16.3-23.5-5.9-1-44.6 17.1-44.6 17.1z" fill="#7165da"/><path d="m142.178 903.325 5.9-6.5a22.478 22.478 0 0 0 -.2-11.8c-2-6-7.1-12.3-9.7-14.3-2.6-1.9-8.5-3.8-8.5-3.8s-4-10.3-7.8-10.9-10.7-1.5-15.6 6.7-12 19.6-11.3 29.6-2.5 18.1-.5 24.8c2 6.8 5.4 12.1 7.6 17.8 2.3 5.7 6.5 6.9 8 15.2a58.385 58.385 0 0 0 3.8 13.2l1.8-5.4s4 2.5 5.1 6.4a62.766 62.766 0 0 0 3 8s2.5-4.6 1.6-8.6c-.9-3.9-1.3-13-1.3-13a21.3 21.3 0 0 1 3.1 4.4c.5 1.6 2.3-3.4 1.1-7s-5.1-8.3-6.6-12.1c-1.4-3.7-4.3-14.8-4.3-20.3s24.8-12.4 24.8-12.4z" fill="#5140b5"/><path d="m143.878 908.025s5.5-9.6 4.1-11.2c-1.3-1.6-5.7 2.9-9.8 3a22.452 22.452 0 0 0 -13.3 5.2c-3.6 3.2-9.7 6.6-11.5 4.2s-5.8-8.3-8.3-8.7-5.8-.7-4.4 3.1c1.4 3.7 2.5 5.2 4.5 5.7s4.5.9 5 2.4 2.9 8.9 5 10.8c2 1.9 9.4 5.5 10.7 5.1s4-.1 6.3-2.1a60.525 60.525 0 0 0 7.2-8c1.8-2.4.6-5.6 1.5-6.3a33.55 33.55 0 0 0 3-3.2z" fill="#a5966a"/><path d="m137.978 1011.925s1.4-.2 1-1-21.2-12.1-21.2-12.1l-1.1 2.1z" fill="#5140b5"/><path d="m446.578 891.525-.6 22.4 24.3 5.8s0-9.8-1.9-14.5-13.2-19.4-13.2-19.4z" fill="#51dcad"/><path d="m493.078 937.325 16.6 4.7s8.1-2.1 10-4.3c1.9-2.1 4-6.2 4-8.9s-1.5-8.5-3.6-10.2-8.3-3.8-10.7-4.7c-2.3-.9-19.4-7.9-24.3-9.6s-11.1-3.8-11.1-3.8l-3.8 13.2 11.7 8.9z" fill="#51dcad"/><path d="m415.678 913.825s11.3-6.6 16.8-6.6 18.3 2.1 23.2 4.5c4.9 2.3 17.9 5.5 22.4 6.8s11.5 8.5 16.4 8.5 15.8 2.6 15.8 2.6 3.4 4 2.1 8.1-5.3 6.8-7.5 6.8c-2.1 0-22.8 5.1-26.6 6.6s-8.5 3.6-11.1 3.4-3.8-1.9-5.3-1.3-6.5 4.8-11 4.7-35.2-44.1-35.2-44.1z" fill="#5140b5"/><path d="m267.478 1030.325 46.5-47.1 105.6 8.8-42.3 47.8z" fill="#6cf"/><path d="m407.578 965.325a34.721 34.721 0 0 0 13.1 2.1c7.2-.3 21.1-5.4 24.4-5.8 3.4-.3 5.8-2.6 5.8-3.7s1.9-13.4.2-19.3c-1.8-5.9-10.4-14.5-13.6-15s-6.9-1.3-6.9-1.3-4.6-9.7-10.1-12.8c-5.4-3-13.3-7.8-17.7-7.8-4.5 0-40.9 8-40.9 8s-8.8 15.7-10.9 18.1a46.28 46.28 0 0 0 -4.6 7.3l-.7 12.8 29.4 12.8z" fill="#e62456"/><path d="m400.378 954.325s-3.4 4.8-4.5 4.8-32.8-7.2-36.3-9.1a39.063 39.063 0 0 0 -8-3l-14 18.5s11.2-4.6 14.1-4.6 28.9 11 36 11.8c7 .8 16.1 2.6 18.2 1.9 2.1-.6 13.1-12.9 13.1-12.9s-11.8-2.4-14.7-3.7a7.827 7.827 0 0 1 -3.9-3.7z" fill="#51dcad"/><path d="m445.778 881.725s-4.7 5.1-3.2 8.5 1.5 6 7.5 4 12.6-9.8 19.2-11.1a32.67 32.67 0 0 0 13.8-5.8c3-2.1 6-3.4 7-5.8 1.1-2.3-3.8-7.5-7.5-9.2-3.6-1.7-7.9-3.4-13.4-.9-5.5 2.6-16.8 13-16.8 13z" fill="#bc1e4b"/><path d="m354.778 898.125s-.6 2.1.4 3.4c1.1 1.3 4 3.8 4.5 6s1.1 3.4.4 5.8c-.6 2.3-1.3 5.3-.2 5.5s4 1.1 4 1.1-.2 2.8 1.1 3.8a4.753 4.753 0 0 0 2.8 1.1s-.6 1.7.4 2.1c1.1.4 2.6.6 3.2 1.7s1.3 4.7 4 4a33.669 33.669 0 0 0 4.9-1.7s.6 5.3 2.8 6c2.1.6 6.4.2 10.2-4.3s11.9-18.1 12.4-19.8a12.07 12.07 0 0 0 0-4 22.7 22.7 0 0 0 2.3-3.4 6.49 6.49 0 0 0 .4-3l-2.6-21.1-30.9-4-15.3 7.9z" fill="#51dcad"/><path d="m395.278 900.625s-1.3 6-2.6 5.8-3.6-5.5-8.7-7.2-11.7-8.1-15.1-8.1-11.7 4.3-14.1 7c-3.5 4.1-3.4-.9-3.4-3.8 0-3 .2-9.4 1.7-11.7s-5.3 1.9-5.3 1.9 3-8.7 3.4-9.6c1-1.9-2.1-1.1-4-3 2.6-1.1 3.8-1.7 8.1-3.2s-3.6-3.8-3.6-3.8 10.9-1.5 13.6-4.3c2.8-2.8 9.8-7 15.1-7s10.4 3.8 10.4 3.8 6.4-1.9 13 4.9 10.2 7 8.7 19a171.017 171.017 0 0 1 -4 21.1s-1.7-6.2-4.7-6-5.8.8-8.5 4.2z" fill="#004366"/><path d="m346.478 935.125s-12.6 15.3-16 17.9-10.2 8.1-13.4 11.9-10 16.6-12.1 16.6-12.6-.9-14.1 2.1-3 4.5-3 6.8a60.045 60.045 0 0 0 .6 7.7c.2.6 5.5 6.6 7.7 6.6 2.1 0 7.9.6 7.5-.9a11.167 11.167 0 0 1 -.4-2.6l.9-1.5s.6 2.3 2.1 1.3c1.5-1.1 1.5-4 2.8-6 1.3-1.9 1.5-4.7 6.6-8.3s16-10.9 19-14.9 8.7-11.5 12.1-14.5 10.2-12.6 10.2-12.6-5.1-2.3-6.4-3.6c-1.3-1.1-4.1-6-4.1-6z" fill="#51dcad"/><path d="m299.178 994.425-8.1-16.4 1.9-1.1 7.5 15.3z" fill="#e62456"/><path d="m301.878 1000.425 2.9 5.1 2.3.6-.6-2-2.8-5.5z" fill="#e62456"/><path d="m470.278 913.625s-1.3-1.9-5.8-.9c-4.5 1.1-10.4 2.1-13 .2s-3.4-4.9-2.6-9.4c.9-4.5 2.8-6 1.1-9.4s-7.5-12.6-8.1-17-1.5-9.8.2-11.5 8.5-1.3 12.4 3.2c3.8 4.5 4.3 12.4 8.1 18.1 3.8 5.8 8.1 10.7 10.2 11.5 2.1.9 3.2 1.7 3 4.5s-.4 6.9-5.5 10.7z" fill="#e62456"/><path d="m286.678 883.925 3.3 1.3s21.2-1.6 23.3-1.7 4 .4 4.5-.5a2.725 2.725 0 0 0 0-1.9s1.2.5 1.5-.6a3.767 3.767 0 0 0 0-2s1.9-.7 1.7-1.4a4.32 4.32 0 0 0 -.8-1.7s.3-1.3 0-1.8a4.808 4.808 0 0 0 -1-1.2s1.7-.8 1.6-1.9-.9-3.3-2.3-3.3a58.267 58.267 0 0 0 -9.2 1.1 26.894 26.894 0 0 1 -5.9 1.2c-2 .1-10.6.7-12.4.5l-1.8-.3-7.5-4.3-10.3 2.2.7 14.8z" fill="#4fa6c0"/><path d="m277.678 871.225s5.5 1 7.6.8a79.1 79.1 0 0 1 8.3-.2c1.7.3 2.3-.1 2.4 1.5s.4 3.4-.8 4.1a5.031 5.031 0 0 1 -2.3.7 21.228 21.228 0 0 1 -1.7 5.1 22.983 22.983 0 0 1 -1.9 3s-.3 1.9-1.3 2.1-2.2.3-5.2-.4-5.5-2.5-7.2-2.5-2.7.1-4.2-1c-1.5-1.2-1-1.8-2.8-1.7-1.7.1-6.9.8-6.9.8l-7.8-4.2-.8-15.4 12-2.7z" fill="#6cf"/><path d="m192.478 900.025 23.2 30.9 92.9-2.6-32.5-30.1z" fill="#6cf"/><path d="m225.078 831.925a49.036 49.036 0 0 0 6.6.7 43.057 43.057 0 0 0 10.2-.8c2.4-.7 4.8-.5 5.3-1.3s1.6-2.4 3-2.5 3.3.7 4.8.6 3.8.2 4.5 1c.6.8 1.1.9.8 1.8a12.346 12.346 0 0 1 -.8 1.8 1.058 1.058 0 0 1 .6 1.5c-.5 1.1-.8 2-.8 2s.4 1.3-1.1 2.9-3.2 3.1-4.6 2.8-3.7-1.3-4.7-1-10.1 5-13.5 5.9a70.586 70.586 0 0 1 -12.2 1.6c-2-.1-2.9-16.5-2.9-16.5z" fill="#6cf"/><path d="m277.678 871.225s-6.5-.4-9.3-1.6c-2.7-1.2-4.9-2-4.9-2s-6-.6-5.7 4.3c.3 5-.2 7.3 1 8.9a11 11 0 0 0 2.8 2.7s-.5.8-3.4.9c-2.9.2-11.4-2.3-15.2-1.3s-8 3.3-12.2 3.5-6.9.4-6.9.4a25.519 25.519 0 0 1 -9.4 2.6c-5.1.3-21 .7-24.1-.5s-5.4-4.9-6.9-7.5-7.4-13.6-5.3-17.3 18.9-12.1 18.9-12.1l27.5-.5a66.1 66.1 0 0 1 8.5-1c2.2.1 8.3 4.3 8.3 4.3s13.2-3.6 16.8-3.4 21.8 10.1 24.8 10.7c3.1.6 5.6.7 5.7 2.2s.3 4.8.3 4.8-5.7-2.4-7.9-1.9c-2.2.7-3.4 3.8-3.4 3.8z" fill="#5140b5"/><path d="m191.178 844.025-5.5-14.3-9-.1-4.2 4.9-.7 4s.6-.6.4 1.6c-.3 2.2-2.4 5.5-2 10.7s1.9 10.6 1.9 12.8-.9 5.4-.1 8.7c.7 3.3 1.8 4.9 3.6 5.6 1.9.8 5.9 2.5 6.2 2.1s1.4-1.2.4-1.8-3.8-2.3-3.8-2.3 8.6.5 8.8 0 .5-1.7-.5-1.9-7.8-1.7-7.8-1.7 7.4-.1 8.8-.9.6-2.7-.1-2.7a14.732 14.732 0 0 1 -2.6-.5s1.7-.7 1-1.6-3.6-1.7-3.6-1.7a1.688 1.688 0 0 0 2.1-.9c.6-1.4 4.2-7.9 4.2-7.9z" fill="#6cf"/><path d="m191.178 799.125s-6.5 3-8.5 5.4-5.7 4.7-7.5 6.9-4.4 3.9-4.4 7.5 1 8.7.4 12a14.5 14.5 0 0 0 .6 7.4c.4.7.6-4 3.8-4.2s9.2 3.2 9.8 3.9 1.9 2.6 1.9 2.6-1.8 12.3-2.5 15a18.336 18.336 0 0 0 -.7 5.6 21.733 21.733 0 0 0 .3 2.7s11-5.2 17.5-6.3c6.4-1.1 18.7-4.8 20.8-5.3l2.1-.5a32.83 32.83 0 0 0 -.3-8.6c-.8-4.2-1.3-7.2-1.3-7.2s4.3-1.8 4.2-3.5-.2-11.6-1.6-15.4-3.1-8.3-8.1-12.1c-5-3.7-26.5-5.9-26.5-5.9z" fill="#e62456"/><path d="m188.978 775.625.6 8.9-1.1.1s-2.3-2.7-3.4-2.5-1.3 2.1-.9 2.9c.5.8 2.3 2.6 2.4 5s1.1 3.8 1.8 4.2a3.315 3.315 0 0 0 1.7.3s.2 5.9 1 7.3 7.7 7.5 11.2 9.2 7.6 3.3 10.6 3.2c3-.2 5.8 1 5.6-.4s-4.6-5.6-4.6-5.6a13.962 13.962 0 0 0 3.7-2.9c1.8-2 2.7-5.4 3-7.5a25.975 25.975 0 0 0 .3-3.3s.6 0 1.3-1.8c.8-1.8.7-3.8 2.2-4.8s3-3.3 1.8-3.8-4.1 1.4-4.1 1.4l-.6-11.3-10.9-10.5-14.1 2.5z" fill="#6cf"/><path d="m207.978 784.625a7.14 7.14 0 0 1 -2.7.9 3.518 3.518 0 0 0 .7-3 17.067 17.067 0 0 0 -1.8-4.1 10.152 10.152 0 0 1 -2.3 3.1 3.763 3.763 0 0 0 -.2-3.3 5.848 5.848 0 0 0 -1.8-1.9s-1.8 3.7-3.1 4c0 0 1-3.3.2-4.6a38.905 38.905 0 0 0 -2.6-3.2s-2.3 4.4-2.2 7 0 2.7.2 3.4c0 0-1.7-.2-2.1-1.3-.3-1.1-.7 2.8-.7 2.8a10.244 10.244 0 0 1 -3.1-7.1c-.1-4.6-.7-13.4 2.8-17.9s5.8-4.6 5.8-4.6a16.951 16.951 0 0 1 12.9-3.7c7.8 1 12.8 3.9 15.3 9.8s2.8 12.3 1.9 15c-.9 2.6-3 9.3-3 9.3s-.1.1-1.9-3.8c-1-2.1-2-1.9-3.2-3.6-1.1-1.5-.9-4.3-.9-4.3a18.752 18.752 0 0 1 -3.4 6.8c-2.7 3.5-3.4 3.5-4.8 4.3z" fill="#a5966a"/><path d="m177.078 862.825-3.7-4.2 1.9-1.7 6.5 7.5z" fill="#e62456"/><path d="m184.978 872.025 18.9 21.8 4.1 2.8-2.4-4.2-18.5-20.7z" fill="#e62456"/><path d="m241.778 839.025 24.9-19.8 2.7-1-1.6 2.4-24.8 20c.1.1-2.3-.2-1.2-1.6z" fill="#5140b5"/><path d="m1468.413 943.401h164.906v2.9h-164.906z" fill="#51dcad" transform="matrix(.07118409 -.9974632 .9974632 .07118409 498.02 2424.527)"/><path d="m1574.978 1010.925 2.7-.9-50.6-148.7-2.8.9z" fill="#51dcad"/><path d="m1479.779 955.11h130.094v2.9h-130.094z" fill="#51dcad" transform="matrix(.35611833 -.93444087 .93444087 .35611833 100.839 2059.464)"/><path d="m1586.178 973.225 2-2.1-75.9-70.4-2 2.1z" fill="#51dcad"/><path d="m1504.378 990.125-2.1-2.1 77.2-77.4 2.1 2z" fill="#51dcad"/><path d="m1499.711 939.743h79.502v2.9h-79.502z" fill="#51dcad" transform="matrix(.97998034 -.19909428 .19909428 .97998034 -156.568 325.343)"/><ellipse cx="1537.778" cy="938.625" fill="none" rx="37.4" ry="89.4" stroke="#004366" stroke-miterlimit="10" stroke-width="12"/><ellipse cx="1547.978" cy="938.025" fill="none" rx="31.5" ry="77.3" stroke="#a5966a" stroke-miterlimit="10" stroke-width="5"/><path d="m1522.278 912.425 104.5.1 1.4 5.7-106.7 3.3z" fill="#51dcad"/><path d="m1527.678 905.125-7.6 59-10.6-6.2 11.3-60.4z" fill="#51dcad"/><path d="m1626.478 927.125s-13.6-5.3-16 1.2-16.5 102.5-16.5 102.5l5.6.2s15.3-96.9 16.8-97.4 10 .5 10 .5z" fill="#51dcad"/><path d="m1626.778 912.525s-62.4-1.7-71.9-2.7-36.2-6.3-39.6-9.2-2.4-32.5-2.4-32.5l118.7 18z" fill="#6cf"/><path d="m1650.078 1004.125s1.5-15.1-1-17-10-4.4-10-4.4l-.7-12.4-8-1 2-46.2 1.6-28.3-9 .7-3.2 96.1h5.8s-2.7 1.5-2.4 8a87.323 87.323 0 0 0 2.4 15.3l10.2-9z" fill="#51dcad"/><path d="m1524.078 848.125s-.5-8.6-.2-12a34.675 34.675 0 0 1 2-7.5l8.4-6.6 38.8 8.9-2 6.9s-29.1-7.3-35.1-6.2-6.6 15.1-6.6 16.9-5.3-.4-5.3-.4z" fill="#51dcad"/><path d="m1525.878 828.625-5.5-.5s-.7-6.6.4-7.5a7.429 7.429 0 0 1 3.3-1.1l21.5-.7s19.1 4.2 21.1 5.3 3.6 3.5 3.6 4.7-.4 2.2-3.5 2.2-25.3-4.2-30-4.2a48.037 48.037 0 0 0 -10.9 1.8z" fill="#a5966a"/><path d="m1693.478 852.425 4.9-76.9s1.8-.9 4.2 1.3 11.8 12.9 11.8 12.9l5.1-6.4s-15.3-16.4-17.6-17.8c-2.2-1.3-9.6-4.7-10.7 1.3s-4.2 86.2-4.2 86.2z" fill="#51dcad"/><path d="m1638.078 914.825 36.6.7 2-10.7 24.9 1.2 2.2-55.7-39.6-2.6-2.4 47.2-25.5-1.1z" fill="#6cf"/><path d="m1453.378 1010.725s-3.5.7-3.1 3.5c.4 2.7-.5 15.3-.5 15.3s23.9 9.1 25.1 9.1 47.2-1.5 47.2-1.5 2.9-1.3 2.9-2.5a21.736 21.736 0 0 0 -.7-3.8l-2.7-1.3-27.9-24.6z" fill="#e62456"/><path d="m1453.378 1010.725-3.5-2.9s.2-12.9 4-14.7 14.7.8 18.6.9c11.3.4 19.3-8.5 19.8-8.9s29.7-3.8 29.7-3.8l5.4 13.1s.2 9.3-.3 14.7a56.921 56.921 0 0 1 -3.5 14.4c-1.1 2.5-2.2 6-2.2 6l-18.6-9.3-12.2-1.1-23.5-7.1z" fill="#a5966a"/><path d="m1589.478 1020.725s10.4 6 10.4 7.6-1.6 18.6-1.6 18.6l-60.8-10.9s-16.6-8.9-16.2-11.3 19.3 0 19.3 0l38.6-13.5z" fill="#e62456"/><path d="m1545.778 1016.425-8.4-2s.5-10.7 2.4-12 9.5-.2 12.4-1.8 4.5-5.9 4.5-5.9l17-27.7 18.4 24.2-2.4 19.3-.2 10.4s-7.8-3.3-10.6-1.5a6.38 6.38 0 0 0 -3.1 6.9c.5 2.5.9 5.1.9 5.1l-4.6-.9z" fill="#a5966a"/><path d="m1556.578 994.625s7.3-6.6 17.5-1.5 15.5 14.6 15.5 17.2 2.4-.7 3.4-3.4 7-24.8 8.5-33.3 17.5-51.2 18.9-59.7c1.5-8.5 1.9-18.5 4.6-18.5s33-.2 33-.2l4.1-34.5-11.7-10-42.7-18.9-52 18.7s-16-1.9-22.8-3.6-29.4-10-36.9-9.7c-7.5.2-20.2 6.1-21.4 15.3s1.7 42.5 3.4 59.5 5.6 50.3 6.8 59a49.053 49.053 0 0 0 5 15.5s12.2-4.1 21.2.1 16.3 7.8 16.3 7.8 0-16-2.4-24.8c-2.4-8.7-2.7-26.7-3.9-37.9s-4.4-39.6-4.4-39.6 17.5 12.4 39.6 11.7l22.1-.7s-3.4 19.4-8 32.8c-4.4 13.3-14.2 53.6-13.7 58.7z" fill="#004366"/><path d="m1602.778 678.825-3.6-3.8a21.045 21.045 0 0 1 -.5-10.2c1.1-5.8 6.2-15.7 15.3-20 9.1-4.4 18.2-6.4 22.9-4.7s4 3.1 6.6 3.5a14.289 14.289 0 0 1 12 10.9c2.4 8.7 3.5 22.8 1.5 32.6s-10 25.9-11.1 27.7-33.1-22.2-33.1-22.2z" fill="#004366"/><path d="m1613.678 725.825-.9-4.1a18.353 18.353 0 0 1 -4.6-3.8c-1.9-2.3-6.9-8.7-7.6-11.1a99.48 99.48 0 0 1 -2-17.3c0-5.1-.2-15.7 1.3-20 1.5-4.4 8.2-12.6 13.8-12.6s13.7 3.8 17.3 3.1 5.6-2.7 6.7.5c1.1 3.3 6.2 18.4 6.2 23.5s1.5 8.6 2.4 7.1 4.7-11.1 6.7-11.1 4.2 1.3 4.2 4.6-.4 10.2-2.7 11.8-5.3 2-5.5 5.1-1.6 10.2-.9 13.3a15.892 15.892 0 0 0 1.5 4.4l7.4 13.4-33.3 12.6-16.8-4 3.1-13.5z" fill="#fff"/><path d="m1555.878 850.625s3.9 2.2 6.8 2.2 25.2-6.3 25.2-6.3 6.3-6.1 11.4-6.6 26 3.2 31.6 5.3c5.6 2.2 22.3 12.6 22.3 12.6l10 .5 1-10.7 9.5.2s10.9-32.3 11.7-35.9c.7-3.6 10.7-13.1 10.9-17.7s.5-11.2 1.5-15.3 2.9-9.7 1.7-13.8-2.4-8-2.4-11.7c0-3.6-7.3-20.2-13.1-21.6s-21.4-5.6-23.8-7.3-10.4-5.3-10.4-5.3 3.4 8.3-6.8 12.6c-10.2 4.4-26.9 3.9-28.4 3.4s-1.9-4.9-1.9-6.3a7.373 7.373 0 0 1 1.2-3.2s-6.8 3.2-10 3.9-28.4 8.7-34.2 9.5c-5.8.7-25.9 18.7-26.3 21.7s-19.8 29.3-19.8 29.3-3.2 7.5-2.4 13.3c.7 5.8 2.2 16 3.2 16l20.2.5a87.907 87.907 0 0 1 9-7.5c3.4-2.2 8.7-5.3 10.9-8.3s4.1-5.6 4.1-5.6 4.6 19.7 3.2 25.5c-1.5 5.8-5.1 13.8-9 18a52.652 52.652 0 0 0 -6.9 8.6z" fill="#e62456"/><path d="m1703.778 850.325s.2-18-.4-19.7-.5-4.4-8.6-4.4c-8 0-31.2-4.8-32.3-4.3s-1.5 5.4-1.5 5.4-2.2 9.8-2.2 15.7-.2 13.1-.2 13.1-16.8-1.6-20.6 1.1-4 10.7-4 27.5-1.6 38.4-1.6 38.4h7.5l1.8-43.9s-.4-14.9 2.9-16 13.1.5 13.1.5l-1.6 35.7 7.6-.2s1.1-64.3 3.5-66.1 28.4-2.4 30 .5.2 16.4.2 16.4z" fill="#51dcad"/><path d="m1535.178 739.125-5.3-29.3s0-4.4 2.4-4.6 24.8-.5 24.8-.5 3.6-.2 4.9 6 10.6 50.1 10.6 50.1-.2 4.6-2.9 4.6-34.1.5-34.1.5z" fill="#004366"/><path d="m1694.478 899.425h7.3v52.6h-7.3z" fill="#51dcad"/><path d="m1565.978 730.725s8.2.2 10.2.9 8.4 4 12.4 5.3 21.7 14 23.7 14.9 4.9 1.3 6 2.4 3.6 4.2 10.6 7.5c6.9 3.3 18.2 10.9 24 12.9s9.8 3.1 10.6 5.3c.7 2.2 1.6 19.8-2.2 25.7-3.8 5.8-11.1 5.5-14.7 3.6s-19.5-18.6-22.4-21.7-13.1-20.2-16.9-21.9c-3.8-1.6-6.2-2.7-9.1-2.2s-10 .7-10.7.4-.7-.4-.7-.4-1.5 2.2-2.5 1.6a4.625 4.625 0 0 1 -1.8-1.8s-2.2 1.6-3.1.9a8.071 8.071 0 0 1 -2-4.6c0-1.3 0-10.2.5-11.5s1.6-3.6 1.6-3.6-2-4.9-4.4-5.6a79.063 79.063 0 0 1 -8.2-3.6z" fill="#fff"/><path d="m1534.778 735.025s6.2-3.6 8.9-3.8 6.6 1.1 4.2 3.1-7.8 5.3-8.9 6.6-4 6-2.7 6 11.3-4.9 14.4-5.6 7.3-2.2 8-.5c.7 1.6-.4 4.4-4 5.8s-10.2 4.2-11.3 5.3a19.939 19.939 0 0 0 -2 2.4s6.7-2.5 11.7-4.2c4.9-1.6 7.6-3.3 8.6-1.6.9 1.6.5 3.3-1.6 4.7s-12.7 6.2-14 6.4a6.443 6.443 0 0 0 -2.7 1.5s6-1.1 9.7-1.6c3.6-.5 7.8-.7 7.8.7s-1.8 4.7-4 4.7-6.6 1.5-6.6 1.5 1.6 4.4 0 7.8c-1.6 3.5-4 8-4 9.5s2.9 14.2.5 19.8-8.9 9.3-12.4 8-9.1-4.6-10-9.5-1.8-9.5-.9-11.7 8.9-8.9 8.6-13.5c-.4-4.6-.5-10.7-1.6-14.9s-3.1-9.3-2.2-12c.7-2.8 6.5-14.9 6.5-14.9z" fill="#fff"/><path d="m1665.578 817.425s11.5-1.3 15.8-2.2c4.4-.9 14.9.2 20.2 2.2s6.9 3.5 6.9 5.3 1.5 6-.2 6.2c-1.6.2-26.9-2.4-31.3-2.4s-8.3.3-9.1 0c-2-.7-4-2.7-4.9-2.4-.9.4-2 3.3-2 3.3s-1.3-4.6-.9-6.7c.4-2.3 4-3.2 5.5-3.3z" fill="#a5966a"/><path d="m1461.078 1021.125s-11.1-8.6-11.1-13.3 2.7-10.6 8.7-8.4 32 19.7 32 19.7z" fill="#004366"/><path d="m1572.178 1030.425s-16.6-18.4-23.3-20.2-11.5 0-11.5 4.2 3.1 10.4 3.1 10.4z" fill="#004366"/><ellipse cx="1650.478" cy="1030.325" fill="none" rx="23.6" ry="28.3" stroke="#004366" stroke-miterlimit="10" stroke-width="9"/><path d="m1638.566 957.249h164.906v2.9h-164.906z" fill="#51dcad" transform="matrix(.07118409 -.9974632 .9974632 .07118409 642.248 2607.111)"/><path d="m1733.078 1019.525 2.9-.6-31.1-154-2.8.5z" fill="#51dcad"/><path d="m1649.99 968.989h130.094v2.9h-130.094z" fill="#51dcad" transform="matrix(.35611833 -.93444087 .93444087 .35611833 197.467 2227.452)"/><path d="m1744.678 982.125 2.2-1.9-66.8-79.2-2.2 1.9z" fill="#51dcad"/><path d="m1678.078 1009.325-2.2-1.9 70.7-83.5 2.2 1.9z" fill="#51dcad"/><path d="m1668.614 956.346h79.502v2.9h-79.502z" fill="#51dcad" transform="matrix(.97998034 -.19909428 .19909428 .97998034 -156.492 359.304)"/><ellipse cx="1707.978" cy="952.525" fill="none" rx="37.4" ry="89.4" stroke="#004366" stroke-miterlimit="10" stroke-width="12"/><ellipse cx="1718.178" cy="951.825" fill="none" rx="31.5" ry="77.3" stroke="#a5966a" stroke-miterlimit="10" stroke-width="5"/><path d="m1639.378 996.325s3.9 20.2 8.5 25c4.6 4.9 7.3 6.3 7.3 6.3l-2.4 6.1s-6.1-3.4-8.3-6.6-8.5-18.5-9.7-23.6c-1.2-5 4.6-7.2 4.6-7.2z" fill="#51dcad"/><circle cx="1654.778" cy="1031.125" fill="#51dcad" r="4.5"/><ellipse cx="1696.178" cy="952.325" fill="#51dcad" rx="2.8" ry="5.6"/><ellipse cx="1719.978" cy="952.325" fill="#51dcad" rx="2.8" ry="5.6"/><path d="m1696.878 946.925h23.1v11h-23.1z" fill="#51dcad"/><path d="m1696.378 946.925h23.9v11h-23.9z" fill="#51dcad"/><path d="m1334.6 1080c-1.2-18.2-1.719-46.975 1.881-52.375 5.1-7.7 19.6-45.1 19.6-56.2s-11.9-40.9-11.9-40.9l-35.7-26.4-64.7 26.4s-3.4 25.5 0 46c2.4 14.5 12.4 67.275 20 103.475 13.094 0 58.637-.2 70.819 0z" fill="#004366"/><path d="m1239.578 784.325s-40.4 4.9-46 5.6-40.3-4.7-44.1-5.1-24.2-4.2-27.4-6.7-19-22-22.8-23.8-20.4-12.4-23.3-12.7c-2.8-.3-21.8-7.4-23.1-6s-1.9 4.8 2.5 6.8 15.3 5.7 17.2 7.3 9.3 9.3 9.3 9.3-11.2 4.1-11.6 6.6l-.5 2.4s-6.7.6-5.4 4.7 3.1 5.2 5 5.4l1.9.2a5.246 5.246 0 0 1 2.1 3.3c.3 2.1 2.5 6.8 5.8 9.7s9.4 3.3 11.6 4.4l2.2 1 3.2-2.5a101.883 101.883 0 0 0 9.9 7.2c3.4 1.9 7.1 1.9 11.6 2.1 4.6.1 14.1 3.9 18.7 5.3 4.6 1.5 54.2 19.1 66.2 21s39.2-7 42.9-9.2c3.7-2.3 16.2 4.7 16.2 4.7l-1.5-14z" fill="#a5966a"/><path d="m1282.978 592.125s-10.8 18.8-12.4 24.3c-1.6 5.6-3.2 7.6-2 9.4s4 4.2 2.8 7-11.2 15.4-11.2 18.6 8 6.1 7.2 8.5-1.6 5.2.4 7.2-1.2 6.8.4 8 2.8 1.2 2.8 5.6-2.8 10 2.2 10 19-2 20.5 2c1.6 4 2.8 10 4.8 12.4s11.6 18 11.6 18l20.7-8.8 11.2-27.5 2.6-13.3-6.6-74-34-13.6z" fill="#a5966a"/><path d="m1280.978 591.325s-5.5 9.9-4.3 12.3 13.1-7.9 20.3-3.1 5.2 7.4 4.8 17 4.8 7.7 4.4 13.7 0 15.2 0 15.2 4.4 4.4 6.4 0 6-16 12-14.4 12.8 5.2 12.8 11.6-4 13.6-3.2 18.8 10 12.8 10 12.8 11.8-24.3 15-30.3 8.2-22.8 5-30.7c-3.2-8-20.3-16.8-23.1-18.4s-13.3-8.7-22.3-9.9c-9.3-1.4-33.8 1-37.8 5.4z" fill="#004366"/><path d="m1212.778 837.525a79.085 79.085 0 0 1 -3.8-11.1c-1.3-5.1 2.1-20 0-28.1s-5.5-11.5-5.5-11.5-1.7-3 4.7-4.7 14.9 0 14.9 0 30.2-14.9 36.2-20.4 20.8-26 21.7-29.4c.8-3.4-2.1-6.8 0-7.2s16.2-15.7 20.4-18.7 19.1-20.8 27.2-22.6c8.1-1.7 17-3.8 17-3.8s4.7 15.7 4.3 17 11.1 13.2 13.6 20 13.6 51.5 12.3 63-6.8 103-13.2 114.9-11.9 20-11.5 23 2.6 4.7-.9 8.5a33.2 33.2 0 0 1 -7.2 6s-93.2 8.9-97 7.7c-3.8-1.3-7.7-6-8.5-8.5-.9-2.6-6.4-8.1-6.8-14-.4-6 2.1-23.8 6-28.1 0 0 4.3-23.8 6-29.4 1.7-5.5 6.7-30.2 6.7-30.2s-5.8-4.3-7.5-.4c-1.7 3.8-.8 6.8-5.5 7.7-4.8.7-23.6.3-23.6.3z" fill="#7165da"/><path d="m688.978 822.825s11.2 14.6 13.9 17 8.8 8.8 8.8 8.8 10.9-24.5 12.9-31.3 8.2-30.6 10.2-35.7a30.747 30.747 0 0 0 2.4-11.6c0-2.7-.1-12.8 1.2-17.8 1.4-5 2.7-9.5 2.5-12.7s-.2-7 .7-7h.9l1.4.9s1.1-5.7 3.4-9.1 9.1-14.5 10.9-14.5 2.7 0 2.7 1.8v1.8s5.4-3.2 6.8-3.2 3.6.7 2.3 3.2c-1.4 2.5-6.8 10.2-8.2 13.8s-3.2 12.2-2.7 13.4c.5 1.1.5 1.4 2-.7 1.6-2 7.9-15 9.3-15.2s3.6.2 2.9 2.9-7.5 14.3-7.5 17.2-2.7 22.9-4.1 28.5c-1.4 5.7-3.4 8.4-5.9 12.9s-7.2 24.5-8.8 32.4-13.1 45.5-16.1 51.6-7.2 15-10.2 16.3-4.3.9-9.3-.5-22.9-13.8-27.9-17.7-6.6-47.8-6.6-47.8z" fill="#6cf"/><path d="m563.678 996.825s-10.2 23-7.5 42.1a222.28 222.28 0 0 0 9.252 41.075c16.4.3 89.982.4 109.182 0 7.6-33.3 14.966-71.775 13.866-83.875-1.8-18.3-124.8.7-124.8.7z" fill="#7165da"/><path d="m651.978 684.625 5-19.5s-4.1-15-11.3-19-23.6-11.8-38.5-9.1c-15 2.7-29.4 7.2-32.6 17.7-3.2 10.4-9.1 26.1-6.8 46.2 2.3 19.5 2.3 25.4-.5 32.6-2.7 7.2-19 20.8-22.2 34-3.2 13.1-.9 29.9 1.4 32.6s102.4-1.4 102.4-1.4-22.9-11.3-25.2-25.4c-2.3-14 18.9-29.9 20.2-43s8.1-45.7 8.1-45.7z" fill="#5140b5"/><path d="m574.078 780.125 2.6-17.8s12.9-2.6 16.5-8.5a31.511 31.511 0 0 0 5-18.1c0-7.2 0-15.4-3.2-19s-12.7-17.7-12.2-20.4.5-5 4.5-5c4.1 0 8.3 2.3 11.8 3.6 3.6 1.4 8.2 0 8.2-6.3s5.4-29 10.9-31.7 20.4-5 28.1-2.7 15 17.7 14.5 23.1-3.2 10-2.3 16.3 3.2 10.4 1.4 17.2-1.7 12.4-2.8 17.3c-1.2 5.5-1.8 9.8-5.5 12.5-5.5 4-10.4-1.8-14 5s-6.1 15.8-6.1 21.2 1.8 6.1 4.5 7 18.7 26.5 18.7 26.5l-4.8 46.4-48.5-10z" fill="#6cf"/><path d="m626.178 809.225c-3.2-4.8-13.2-19.1-17.9-26.3-4.8-7.1-16.8-24-21.2-24.3s-24.5 4.8-31.9 10.2c-7.5 5.4-16.5 14.5-19.6 22.9-3.3 9-3.8 33.2-2.1 36.2 3 5.2 6.3 8.9 10.8 16 4.4 7 19.4 89.4 15.7 129.7-.6 6.1-3.4 17-.7 23.4s26.2 15.6 48.6 13.6 42.8-4.1 55.4-4.8 22.1-5.4 25.1-9.9c3.1-4.4 1-11.2 1-16.3s-5.4-16-5.4-27.2 2.4-57.8 2.4-71c0-13.3 2.7-27.2.3-36.4s-4.3-15.9-4.3-15.9l9.7-5.5s-10.2-22.1-16.3-28.9-11.5-14.4-19.7-17.1-24.8-8.6-24.5-7.2 14.6 13.8 17 25.4 7.5 21.7 2.4 25.8-21.3-7.2-24.8-12.4z" fill="#e62456"/><path d="m668.678 806.825s2-1 3.7-4.4 9.2-21.4 11.6-24.5 2.9-5.9 6.3-9.1 5.9-8.8 5.4-10.2-1.4-3.6-4.5-2c-3.2 1.6-8.6 8.2-10 10.9s-4.3 5.9-5 4.8-1.1-3.4-.7-7.5a88.056 88.056 0 0 1 2.5-11.3c.5-1.8 2.3-6.6 3.4-7a96.27 96.27 0 0 0 10.2-6.6c5.2-3.6 6.8-6.1 5-7.2s-3.6-.7-7.5 1.4c-3.9 2-14.7 7.9-14.7 7.9s4.1-7 5.7-7.9 6.6-3.9 7.7-6.1c1.1-2.3 1.1-5.9-1.6-5.2s-7.2 4.1-7.2 4.1-2.7-2.5-4.3-1.1-9.1 10.4-10.2 12.7a13.8 13.8 0 0 1 -2.9 3.9s-3.9-.7-3.9.9.7 15.2.7 16.5 1.1 4.8.9 10.2-2.7 19.5-4.8 24a173.445 173.445 0 0 1 -8.6 17.7c-.5.8-1.1 1.9-1.9 3.3-5.4 9.1-17.3 29.1-21.4 33.2-4.8 4.8-13.1 14-13.1 14s-9.7-18.8-12.2-26.1c-2.5-7.2-3.9-18.1-7.2-21.5s-17-15.6-25.8-15c-8.8.7-17.2 7.5-18.1 13.4s0 16.8 2 21.3 17.7 37.2 26.1 46.4c8.4 9.3 17.4 22 21.1 24.9s10.4 9.3 14.3 10 9.3.2 10.6-2.3c1.4-2.5 4.1-11.8 9.3-17.9s13.8-21.3 17.4-27 17.7-54.6 18.8-56.2c.9-1.6 2.9-5.4 2.9-5.4z" fill="#6cf"/><path d="m712.578 673.825h382.4v185h-382.4z" fill="#51dcad"/><path d="m741.578 699.825h84.5v41.5h-84.5z" fill="#4fa6c0"/><path d="m895.878 717.825h74.6v45h-74.6z" fill="#4fa6c0"/><path d="m1015.878 798.325h22.8v37h-22.8z" fill="#4fa6c0"/><path d="m1015.878 702.825h25.8v76h-25.8z" fill="#e62456"/><path d="m755.078 858.825-55.5 72h408.5l-20-72z" fill="#e62456"/><path d="m737.578 985.825-38 64.5h408.5l-13.7-64.5z" fill="#e62456"/><path d="m826.078 807.325h127.9v31h-127.9z" fill="#e62456"/><path d="m761.378 858.825h285v47.5h-285z" fill="#004366"/><path d="m761.378 986.325h285v47.5h-285z" fill="#004366"/><path d="m699.578 930.825h408.5v55h-408.5z" fill="#a5966a"/><path d="m699.578 1050.325h408.5v29.675h-408.5z" fill="#a5966a"/><path d="m1039.178 593.825h-155.2l-171.4 80h382.4z" fill="#a5966a"/><path d="m1033.478 605.025h-154l-105.4 55.3h287.5z" fill="#fff"/><path d="m879.478 605.025h154.4v16.1h-154.4z" fill="#004366"/><path d="m879.478 621.125-59.6 39.2h-45.8l105.4-55.3z" fill="#4fa6c0"/><path d="m1061.578 660.325-27.7-55.3v16.1l16.5 39.2z" fill="#4fa6c0"/><path d="m966.478 651.325h-58.1l12-14.5h50.4z" fill="#51dcad"/><path d="m873.078 618.325-68.9 42h65.3l46.4-42z" fill="#6cf"/><path d="m990.278 618.325-7.7 42h70.6l-18.8-42z" fill="#6cf"/></svg>