<?xml version="1.0" encoding="UTF-8" standalone="no"?><!DOCTYPE svg PUBLIC "-//W3C//DTD SVG 1.1//EN" "http://www.w3.org/Graphics/SVG/1.1/DTD/svg11.dtd"><svg width="100%" height="100%" viewBox="0 0 800 406" version="1.1" xmlns="http://www.w3.org/2000/svg" xmlns:xlink="http://www.w3.org/1999/xlink" xml:space="preserve" xmlns:serif="http://www.serif.com/" style="fill-rule:evenodd;clip-rule:evenodd;stroke-linejoin:round;stroke-miterlimit:1.41421;"><g><rect x="0" y="0" width="114.286" height="405.347" style="fill:#cdcdcd;fill-rule:nonzero;"/><rect x="114.286" y="0" width="114.285" height="405.347" style="fill:#f3ea05;fill-rule:nonzero;"/><rect x="228.571" y="0" width="114.286" height="405.347" style="fill:#00b2cf;fill-rule:nonzero;"/><rect x="342.857" y="0" width="114.285" height="405.347" style="fill:#00a650;fill-rule:nonzero;"/><rect x="457.142" y="0" width="114.287" height="405.347" style="fill:#d0479a;fill-rule:nonzero;"/><rect x="571.429" y="0" width="114.285" height="405.347" style="fill:#ed1c24;fill-rule:nonzero;"/><rect x="685.714" y="0" width="114.286" height="405.347" style="fill:#3553a5;fill-rule:nonzero;"/><rect x="0" y="303.312" width="114.286" height="51.345" style="fill:#3553a5;fill-rule:nonzero;"/><rect x="114.286" y="303.312" width="114.285" height="51.345" style="fill:#0c1910;fill-rule:nonzero;"/><rect x="228.571" y="303.312" width="114.286" height="51.345" style="fill:#d0479a;fill-rule:nonzero;"/><rect x="342.857" y="303.312" width="114.286" height="51.345" style="fill:#0c1910;fill-rule:nonzero;"/><rect x="457.143" y="303.312" width="114.286" height="51.345" style="fill:#00b2cf;fill-rule:nonzero;"/><rect x="571.429" y="303.312" width="114.285" height="51.345" style="fill:#0c1910;fill-rule:nonzero;"/><rect x="685.714" y="303.312" width="114.286" height="51.345" style="fill:#cdcdcd;fill-rule:nonzero;"/><rect x="0" y="354.657" width="133.278" height="51.343" style="fill:#01405d;fill-rule:nonzero;"/><rect x="133.278" y="354.657" width="133.278" height="51.343" style="fill:#fff;fill-rule:nonzero;"/><rect x="266.556" y="354.657" width="133.277" height="51.343" style="fill:#472674;fill-rule:nonzero;"/><rect x="399.833" y="354.657" width="133.278" height="51.343" style="fill:#0c1910;fill-rule:nonzero;"/><rect x="533.111" y="354.657" width="44.259" height="51.343" style="fill:#030404;fill-rule:nonzero;"/><rect x="577.37" y="354.657" width="44.26" height="51.343" style="fill:#0c1910;fill-rule:nonzero;"/><rect x="621.63" y="354.657" width="44.26" height="51.343" style="fill:#272727;fill-rule:nonzero;"/><rect x="665.944" y="354.657" width="134.056" height="51.343" style="fill:#0c1910;fill-rule:nonzero;"/><rect x="114.286" y="102.175" width="571.417" height="98.114" style="fill:#272727;fill-rule:nonzero;"/><g><path d="M207.075,122.312l0,8.56l-25.64,0l0,16.04l20.2,0l0,8.28l-20.2,0l0,16.36l25.64,0l0,8.6l-36.48,0l0,-57.84l36.48,0Z" style="fill:#fff;fill-rule:nonzero;"/><path d="M227.515,157.552l0,22.6l-10.76,0l0,-57.84l17.64,0c3.946,0 7.326,0.407 10.14,1.22c2.813,0.813 5.12,1.953 6.92,3.42c1.8,1.467 3.12,3.22 3.96,5.26c0.84,2.04 1.26,4.287 1.26,6.74c0,1.947 -0.287,3.787 -0.86,5.52c-0.574,1.733 -1.4,3.307 -2.48,4.72c-1.08,1.413 -2.414,2.653 -4,3.72c-1.587,1.067 -3.394,1.92 -5.42,2.56c1.36,0.773 2.533,1.88 3.52,3.32l14.48,21.36l-9.68,0c-0.934,0 -1.727,-0.187 -2.38,-0.56c-0.654,-0.373 -1.207,-0.907 -1.66,-1.6l-12.16,-18.52c-0.454,-0.693 -0.954,-1.187 -1.5,-1.48c-0.547,-0.293 -1.354,-0.44 -2.42,-0.44l-4.6,0Zm0,-7.72l6.72,0c2.026,0 3.793,-0.253 5.3,-0.76c1.506,-0.507 2.746,-1.207 3.72,-2.1c0.973,-0.893 1.7,-1.953 2.18,-3.18c0.48,-1.227 0.72,-2.573 0.72,-4.04c0,-2.933 -0.967,-5.187 -2.9,-6.76c-1.934,-1.573 -4.887,-2.36 -8.86,-2.36l-6.88,0l0,19.2Z" style="fill:#fff;fill-rule:nonzero;"/><path d="M279.915,157.552l0,22.6l-10.76,0l0,-57.84l17.64,0c3.946,0 7.326,0.407 10.14,1.22c2.813,0.813 5.12,1.953 6.92,3.42c1.8,1.467 3.12,3.22 3.96,5.26c0.84,2.04 1.26,4.287 1.26,6.74c0,1.947 -0.287,3.787 -0.86,5.52c-0.574,1.733 -1.4,3.307 -2.48,4.72c-1.08,1.413 -2.414,2.653 -4,3.72c-1.587,1.067 -3.394,1.92 -5.42,2.56c1.36,0.773 2.533,1.88 3.52,3.32l14.48,21.36l-9.68,0c-0.934,0 -1.727,-0.187 -2.38,-0.56c-0.654,-0.373 -1.207,-0.907 -1.66,-1.6l-12.16,-18.52c-0.454,-0.693 -0.954,-1.187 -1.5,-1.48c-0.547,-0.293 -1.354,-0.44 -2.42,-0.44l-4.6,0Zm0,-7.72l6.72,0c2.026,0 3.793,-0.253 5.3,-0.76c1.506,-0.507 2.746,-1.207 3.72,-2.1c0.973,-0.893 1.7,-1.953 2.18,-3.18c0.48,-1.227 0.72,-2.573 0.72,-4.04c0,-2.933 -0.967,-5.187 -2.9,-6.76c-1.934,-1.573 -4.887,-2.36 -8.86,-2.36l-6.88,0l0,19.2Z" style="fill:#fff;fill-rule:nonzero;"/><path d="M374.755,151.232c0,4.24 -0.707,8.167 -2.12,11.78c-1.414,3.613 -3.4,6.74 -5.96,9.38c-2.56,2.64 -5.64,4.7 -9.24,6.18c-3.6,1.48 -7.587,2.22 -11.96,2.22c-4.374,0 -8.367,-0.74 -11.98,-2.22c-3.614,-1.48 -6.707,-3.54 -9.28,-6.18c-2.574,-2.64 -4.567,-5.767 -5.98,-9.38c-1.414,-3.613 -2.12,-7.54 -2.12,-11.78c0,-4.24 0.706,-8.167 2.12,-11.78c1.413,-3.613 3.406,-6.74 5.98,-9.38c2.573,-2.64 5.666,-4.7 9.28,-6.18c3.613,-1.48 7.606,-2.22 11.98,-2.22c4.373,0 8.36,0.747 11.96,2.24c3.6,1.493 6.68,3.553 9.24,6.18c2.56,2.627 4.546,5.747 5.96,9.36c1.413,3.613 2.12,7.54 2.12,11.78Zm-11.04,0c0,-3.173 -0.42,-6.02 -1.26,-8.54c-0.84,-2.52 -2.047,-4.66 -3.62,-6.42c-1.574,-1.76 -3.487,-3.107 -5.74,-4.04c-2.254,-0.933 -4.794,-1.4 -7.62,-1.4c-2.827,0 -5.374,0.467 -7.64,1.4c-2.267,0.933 -4.194,2.28 -5.78,4.04c-1.587,1.76 -2.807,3.9 -3.66,6.42c-0.854,2.52 -1.28,5.367 -1.28,8.54c0,3.173 0.426,6.02 1.28,8.54c0.853,2.52 2.073,4.653 3.66,6.4c1.586,1.747 3.513,3.087 5.78,4.02c2.266,0.933 4.813,1.4 7.64,1.4c2.826,0 5.366,-0.467 7.62,-1.4c2.253,-0.933 4.166,-2.273 5.74,-4.02c1.573,-1.747 2.78,-3.88 3.62,-6.4c0.84,-2.52 1.26,-5.367 1.26,-8.54Z" style="fill:#fff;fill-rule:nonzero;"/><path d="M394.355,157.552l0,22.6l-10.76,0l0,-57.84l17.64,0c3.946,0 7.326,0.407 10.14,1.22c2.813,0.813 5.12,1.953 6.92,3.42c1.8,1.467 3.12,3.22 3.96,5.26c0.84,2.04 1.26,4.287 1.26,6.74c0,1.947 -0.287,3.787 -0.86,5.52c-0.574,1.733 -1.4,3.307 -2.48,4.72c-1.08,1.413 -2.414,2.653 -4,3.72c-1.587,1.067 -3.394,1.92 -5.42,2.56c1.36,0.773 2.533,1.88 3.52,3.32l14.48,21.36l-9.68,0c-0.934,0 -1.727,-0.187 -2.38,-0.56c-0.654,-0.373 -1.207,-0.907 -1.66,-1.6l-12.16,-18.52c-0.454,-0.693 -0.954,-1.187 -1.5,-1.48c-0.547,-0.293 -1.354,-0.44 -2.42,-0.44l-4.6,0Zm0,-7.72l6.72,0c2.026,0 3.793,-0.253 5.3,-0.76c1.506,-0.507 2.746,-1.207 3.72,-2.1c0.973,-0.893 1.7,-1.953 2.18,-3.18c0.48,-1.227 0.72,-2.573 0.72,-4.04c0,-2.933 -0.967,-5.187 -2.9,-6.76c-1.934,-1.573 -4.887,-2.36 -8.86,-2.36l-6.88,0l0,19.2Z" style="fill:#fff;fill-rule:nonzero;"/><path d="M478.475,163.832l-3.08,16.32l-4.52,0c-0.8,0 -1.494,-0.32 -2.08,-0.96c-0.587,-0.64 -0.88,-1.427 -0.88,-2.36c0,-0.133 0.006,-0.26 0.02,-0.38c0.013,-0.12 0.033,-0.247 0.06,-0.38l2.36,-12.24l-8.2,0l-2.32,12.72c-0.24,1.28 -0.787,2.2 -1.64,2.76c-0.854,0.56 -1.8,0.84 -2.84,0.84l-4.36,0l3.04,-16.32l-4.6,0c-0.854,0 -1.507,-0.207 -1.96,-0.62c-0.454,-0.413 -0.68,-1.1 -0.68,-2.06c0,-0.373 0.04,-0.8 0.12,-1.28l0.52,-3.16l7.6,0l2.08,-11.04l-8.56,0l0.76,-4.12c0.186,-1.013 0.6,-1.767 1.24,-2.26c0.64,-0.493 1.68,-0.74 3.12,-0.74l4.44,0l2.48,-12.88c0.213,-1.067 0.706,-1.893 1.48,-2.48c0.773,-0.587 1.68,-0.88 2.72,-0.88l4.48,0l-3.04,16.24l8.16,0l3.08,-16.24l4.4,0c0.933,0 1.693,0.267 2.28,0.8c0.586,0.533 0.88,1.213 0.88,2.04c0,0.267 -0.014,0.467 -0.04,0.6l-2.48,12.8l8.12,0l-0.76,4.12c-0.187,1.013 -0.607,1.767 -1.26,2.26c-0.654,0.493 -1.687,0.74 -3.1,0.74l-4,0l-2.04,11.04l5.68,0c0.853,0 1.5,0.207 1.94,0.62c0.44,0.413 0.66,1.113 0.66,2.1c0,0.373 -0.04,0.8 -0.12,1.28l-0.48,3.12l-8.68,0Zm-15.32,-7.12l8.2,0l2.04,-11.04l-8.16,0l-2.08,11.04Z" style="fill:#fff;fill-rule:nonzero;"/><path d="M529.315,158.352l7.28,0l0,5.72c0,0.533 -0.174,0.993 -0.52,1.38c-0.347,0.387 -0.854,0.58 -1.52,0.58l-5.24,0l0,14.12l-8.64,0l0,-14.12l-24.4,0c-0.667,0 -1.254,-0.207 -1.76,-0.62c-0.507,-0.413 -0.827,-0.927 -0.96,-1.54l-1,-5l27.4,-36.6l9.36,0l0,36.08Zm-8.64,-18.92c0,-0.853 0.026,-1.773 0.08,-2.76c0.053,-0.987 0.146,-2.013 0.28,-3.08l-17.96,24.76l17.6,0l0,-18.92Z" style="fill:#fff;fill-rule:nonzero;"/><path d="M582.435,151.232c0,5.04 -0.54,9.42 -1.62,13.14c-1.08,3.72 -2.574,6.793 -4.48,9.22c-1.907,2.427 -4.16,4.233 -6.76,5.42c-2.6,1.187 -5.407,1.78 -8.42,1.78c-3.014,0 -5.807,-0.593 -8.38,-1.78c-2.574,-1.187 -4.807,-2.993 -6.7,-5.42c-1.894,-2.427 -3.374,-5.5 -4.44,-9.22c-1.067,-3.72 -1.6,-8.1 -1.6,-13.14c0,-5.067 0.533,-9.453 1.6,-13.16c1.066,-3.707 2.546,-6.773 4.44,-9.2c1.893,-2.427 4.126,-4.233 6.7,-5.42c2.573,-1.187 5.366,-1.78 8.38,-1.78c3.013,0 5.82,0.593 8.42,1.78c2.6,1.187 4.853,2.993 6.76,5.42c1.906,2.427 3.4,5.493 4.48,9.2c1.08,3.707 1.62,8.093 1.62,13.16Zm-10.2,0c0,-4.187 -0.307,-7.653 -0.92,-10.4c-0.614,-2.747 -1.434,-4.933 -2.46,-6.56c-1.027,-1.627 -2.207,-2.767 -3.54,-3.42c-1.334,-0.653 -2.72,-0.98 -4.16,-0.98c-1.414,0 -2.78,0.327 -4.1,0.98c-1.32,0.653 -2.487,1.793 -3.5,3.42c-1.014,1.627 -1.82,3.813 -2.42,6.56c-0.6,2.747 -0.9,6.213 -0.9,10.4c0,4.187 0.3,7.653 0.9,10.4c0.6,2.747 1.406,4.933 2.42,6.56c1.013,1.627 2.18,2.767 3.5,3.42c1.32,0.653 2.686,0.98 4.1,0.98c1.44,0 2.826,-0.327 4.16,-0.98c1.333,-0.653 2.513,-1.793 3.54,-3.42c1.026,-1.627 1.846,-3.813 2.46,-6.56c0.613,-2.747 0.92,-6.213 0.92,-10.4Z" style="fill:#fff;fill-rule:nonzero;"/><path d="M622.115,158.352l7.28,0l0,5.72c0,0.533 -0.174,0.993 -0.52,1.38c-0.347,0.387 -0.854,0.58 -1.52,0.58l-5.24,0l0,14.12l-8.64,0l0,-14.12l-24.4,0c-0.667,0 -1.254,-0.207 -1.76,-0.62c-0.507,-0.413 -0.827,-0.927 -0.96,-1.54l-1,-5l27.4,-36.6l9.36,0l0,36.08Zm-8.64,-18.92c0,-0.853 0.026,-1.773 0.08,-2.76c0.053,-0.987 0.146,-2.013 0.28,-3.08l-17.96,24.76l17.6,0l0,-18.92Z" style="fill:#fff;fill-rule:nonzero;"/></g></g></svg>