<svg xmlns="http://www.w3.org/2000/svg" width="15.354" height="28.4" viewBox="0 0 15.354 28.4">
  <g id="facebook-logo" transform="translate(-22.077)">
    <path id="Pfad_2526" data-name="Pfad 2526" d="M36.853.006,33.171,0c-4.138,0-6.812,2.743-6.812,6.989v3.223h-3.7a.579.579,0,0,0-.579.579V15.46a.579.579,0,0,0,.579.579h3.7V27.821a.579.579,0,0,0,.579.579H31.77a.579.579,0,0,0,.579-.579V16.04h4.33a.579.579,0,0,0,.579-.579l0-4.669a.58.58,0,0,0-.579-.579H32.349V7.48c0-1.313.313-1.98,2.023-1.98h2.481a.579.579,0,0,0,.579-.579V.585A.579.579,0,0,0,36.853.006Z" fill="#fff"/>
  </g>
</svg>
