<svg xmlns="http://www.w3.org/2000/svg" viewBox="0 0 1049.401 460"><defs><clipPath id="a"><path d="M789.432-471.131L941.655-330.2a7.065 7.065 0 0 0 9.986-.317 7.067 7.067 0 0 0-.317-9.988L799.1-481.434a7.068 7.068 0 0 0-9.987.317 7.065 7.065 0 0 0 .319 9.986z" class="a"/></clipPath><clipPath id="b"><path d="M884.417-248.565l-83.938-226.784a7.065 7.065 0 0 0-9.077-4.176 7.066 7.066 0 0 0-4.175 9.08l83.938 226.783a7.067 7.067 0 0 0 9.078 4.175 7.065 7.065 0 0 0 4.174-9.078z" class="a"/></clipPath><clipPath id="c"><path d="M778.85-269.04l18.663-207.868a7.065 7.065 0 0 0-6.412-7.663 7.065 7.065 0 0 0-7.663 6.412L764.774-270.29a7.066 7.066 0 0 0 6.413 7.663 7.066 7.066 0 0 0 7.663-6.413z" class="a"/></clipPath><clipPath id="d"><path d="M920.061-445.933l-127.174-42.392a7.065 7.065 0 0 0-8.937 4.467 7.065 7.065 0 0 0 4.469 8.937L915.6-432.529a7.061 7.061 0 0 0 8.929-4.471 7.062 7.062 0 0 0-4.468-8.933z" class="a"/></clipPath><clipPath id="e"><path d="M789.432 88.869l144.741 134.077a7.065 7.065 0 0 0 9.669-10.305L799.1 78.566a7.065 7.065 0 1 0-9.669 10.3z" class="a"/></clipPath><clipPath id="f"><path d="M684.674-955.508h1401.279V1027.48H684.674z" class="a"/></clipPath><clipPath id="g"><path d="M783.588 71.312H950.8v157.791H783.588z" class="a"/></clipPath><clipPath id="h"><path d="M785.943 73.667h162.501v153.081H785.943z" class="a"/></clipPath><clipPath id="i"><path d="M786.034 73.762h162.502v153.082H786.034z" class="a"/></clipPath><clipPath id="m"><path d="M786.623 82.671L939.7 226.332a5.889 5.889 0 1 0 8.059-8.588L794.682 74.084a5.888 5.888 0 0 0-8.059 8.587z" class="a"/></clipPath><linearGradient id="p" x1="2868.605" x2="2666.008" y1="-1154.983" y2="-1154.983" gradientTransform="matrix(0 1.099 -1 0 -290.216 -2887.933)" gradientUnits="userSpaceOnUse"><stop offset=".111" stop-color="#5fc4f0"/><stop offset=".881" stop-color="#9a8f6b"/></linearGradient><clipPath id="q"><path d="M884.417 311.435L800.479 84.651a7.065 7.065 0 1 0-13.252 4.9l83.938 226.783a7.065 7.065 0 1 0 13.252-4.9z" class="a"/></clipPath><clipPath id="s"><path d="M883.313 311.844L796.175 76.335a5.888 5.888 0 1 0-11.044 4.085l87.138 235.509a5.888 5.888 0 0 0 11.044-4.085z" class="a"/></clipPath><linearGradient id="t" x1="549.455" x2="549.455" y1="-6371.055" y2="-6617.744" gradientTransform="matrix(-1 0 0 -1.083 1405.902 -6843.684)" gradientUnits="userSpaceOnUse"><stop offset=".139" stop-color="#9a8f6b"/><stop offset=".881" stop-color="#e8325e"/></linearGradient><clipPath id="u"><path d="M778.85 290.96l18.663-207.868a7.065 7.065 0 0 0-14.075-1.251L764.774 289.71a7.066 7.066 0 0 0 14.076 1.25z" class="a"/></clipPath><clipPath id="w"><path d="M764.747 71.312h32.971v226.089h-32.971z" class="a"/></clipPath><clipPath id="x"><path d="M764.747 73.667h35.327v226.089h-35.327z" class="a"/></clipPath><clipPath id="y"><path d="M764.838 73.762h35.327v226.09h-35.327z" class="a"/></clipPath><clipPath id="ac"><path d="M777.677 290.857L796.517 78.9a5.888 5.888 0 0 0-11.729-1.04l-18.841 211.953a5.888 5.888 0 0 0 11.73 1.044z" class="a"/></clipPath><linearGradient id="af" x1="1030.105" x2="1030.105" y1="228.617" y2="1.998" gradientTransform="rotate(90.002 871.09 24.708)" gradientUnits="userSpaceOnUse"><stop offset=".139" stop-color="#4952a2"/><stop offset=".881" stop-color="#9a8f6b"/></linearGradient><clipPath id="ag"><path d="M920.061 114.067L792.887 71.675a7.065 7.065 0 1 0-4.468 13.4L915.6 127.471a7.064 7.064 0 0 0 4.466-13.4z" class="a"/></clipPath><clipPath id="ai"><path d="M783.588 71.312h141.305v56.522H783.588z" class="a"/></clipPath><clipPath id="aj"><path d="M781.232 71.312h146.016v58.877H781.232z" class="a"/></clipPath><clipPath id="ak"><path d="M781.324 71.407H927.34v58.878H781.324z" class="a"/></clipPath><clipPath id="ao"><path d="M919.691 115.185L792.515 72.793a5.886 5.886 0 1 0-3.724 11.168l127.174 42.392a5.887 5.887 0 1 0 3.726-11.168z" class="a"/></clipPath><linearGradient id="ar" x1="1975.982" x2="2120.134" y1="-390.49" y2="-390.49" gradientTransform="matrix(0 1.02 -1 0 462.816 -1986.649)" gradientUnits="userSpaceOnUse"><stop offset=".248" stop-color="#9a8f6b"/><stop offset=".547" stop-color="#62c2a4"/><stop offset=".862" stop-color="#004768"/></linearGradient><clipPath id="as"><path d="M911.352 125.81l24.284 95.568a7.066 7.066 0 0 0 13.779-3.112c-.028-.131.407.545.372.413L925.04 122.31a7.064 7.064 0 1 0-13.688 3.5z" class="a"/></clipPath><clipPath id="au"><path d="M910.763 113.703H950.8v115.4h-40.037z" class="a"/></clipPath><clipPath id="av"><path d="M908.408 116.059h42.391v113.044h-42.391z" class="a"/></clipPath><clipPath id="aw"><path d="M908.5 116.154h42.392v113.045H908.5z" class="a"/></clipPath><clipPath id="ba"><path d="M912.124 122.227L938.03 223.5a5.887 5.887 0 1 0 11.407-2.916l-25.906-101.273a5.887 5.887 0 1 0-11.407 2.916z" class="a"/></clipPath><linearGradient id="bd" x1="18.043" x2="18.043" y1="100.803" y2="-11.07" gradientTransform="matrix(1 0 0 1.042 913.544 123.465)" gradientUnits="userSpaceOnUse"><stop offset=".214" stop-color="#5fc4f0"/><stop offset=".433" stop-color="#62c2a4"/><stop offset=".667" stop-color="#004768"/></linearGradient><clipPath id="be"><path d="M938 217.917l-64.452 89.445a7.065 7.065 0 1 0 11.478 8.24l64.45-89.443A7.065 7.065 0 1 0 938 217.917z" class="a"/></clipPath><clipPath id="bg"><path d="M870.726 214.972h80.073v105.979h-80.073z" class="a"/></clipPath><clipPath id="bh"><path d="M870.726 212.617h80.073v108.334h-80.073z" class="a"/></clipPath><clipPath id="bi"><path d="M870.818 212.714h80.074v108.335h-80.074z" class="a"/></clipPath><clipPath id="bm"><path d="M938.95 218.6l-65.943 91.849a5.889 5.889 0 0 0 9.568 6.867l65.942-91.848a5.888 5.888 0 1 0-9.567-6.868z" class="a"/></clipPath><linearGradient id="bp" x1="2727.175" x2="2727.175" y1="-1230.423" y2="-1119.984" gradientTransform="matrix(0 1 -1.143 0 -430.277 -2458.158)" gradientUnits="userSpaceOnUse"><stop offset=".214" stop-color="#5fc4f0"/><stop offset=".803" stop-color="#e8325e"/></linearGradient><clipPath id="bq"><path d="M772.594 297.8l101.264 21.9a7.066 7.066 0 0 0 3.066-13.8l-100.287-21.645a7.264 7.264 0 0 0-8.476 5.6c-.846 3.804.624 7.1 4.433 7.945z" class="a"/></clipPath><clipPath id="bs"><path d="M764.747 283.27h120.11v37.682h-120.11z" class="a"/></clipPath><clipPath id="bt"><path d="M767.102 283.27h117.755v37.682H767.102z" class="a"/></clipPath><clipPath id="bu"><path d="M767.193 283.367h117.755v37.682H767.193z" class="a"/></clipPath><clipPath id="by"><path d="M770.534 296.083l105.981 23.551a5.887 5.887 0 1 0 2.552-11.5L773.09 284.588a5.888 5.888 0 0 0-2.556 11.5z" class="a"/></clipPath><linearGradient id="cb" x1="1519.004" x2="1635.897" y1="-23.02" y2="-23.02" gradientTransform="matrix(0 1.061 -1 0 802.571 -1374.497)" gradientUnits="userSpaceOnUse"><stop offset=".196" stop-color="#4952a2"/><stop offset=".881" stop-color="#e8325e"/></linearGradient><clipPath id="cc"><path d="M777.342 293.67l165.552-64.429a7.065 7.065 0 1 0-5.062-13.192l-165.55 64.429a7.065 7.065 0 1 0 5.06 13.192z" class="a"/></clipPath><clipPath id="ce"><path d="M764.747 214.972h186.052v80.073H764.747z" class="a"/></clipPath><clipPath id="cf"><path d="M764.747 212.617h183.697V297.4H764.747z" class="a"/></clipPath><clipPath id="cg"><path d="M764.838 212.714h183.698v84.784H764.838z" class="a"/></clipPath><clipPath id="ck"><path d="M773.921 293.477l171.922-65.942a5.888 5.888 0 0 0-4.218-10.994L769.7 282.484a5.887 5.887 0 1 0 4.218 10.993z" class="a"/></clipPath><linearGradient id="cl" x1="-107.057" x2="75.813" y1="316.566" y2="316.566" gradientTransform="matrix(1.084 0 0 1 873.761 -64.275)" gradientUnits="userSpaceOnUse"><stop offset=".139" stop-color="#4952a2"/><stop offset=".881" stop-color="#5fc4f0"/></linearGradient><clipPath id="cm"><path d="M885.436 309.65l39.333-180.44a7.066 7.066 0 1 0-13.8-3.032l-39.337 180.441a7.066 7.066 0 0 0 13.8 3.031z" class="a"/></clipPath><clipPath id="co"><path d="M870.726 113.703h56.522v207.248h-56.522z" class="a"/></clipPath><clipPath id="cp"><path d="M870.726 118.414h56.522v197.828h-56.522z" class="a"/></clipPath><clipPath id="cq"><path d="M870.818 118.509h56.523v197.829h-56.523z" class="a"/></clipPath><clipPath id="cu"><path d="M883.541 315.149l42.392-193.118a5.887 5.887 0 0 0-11.5-2.525l-42.392 193.118a5.887 5.887 0 0 0 11.5 2.525z" class="a"/></clipPath><linearGradient id="cx" x1="1368.626" x2="1368.626" y1="194.339" y2="-15.794" gradientTransform="matrix(0 1 -1.002 0 983.086 -1152.129)" gradientUnits="userSpaceOnUse"><stop offset=".184" stop-color="#e8325e"/><stop offset=".522" stop-color="#62c2a4"/><stop offset=".772" stop-color="#004768"/></linearGradient><clipPath id="cy"><path d="M909.3 118.837L769.349 282.514a7.065 7.065 0 1 0 10.707 9.22L920 128.06a7.066 7.066 0 0 0-10.708-9.223z" class="a"/></clipPath><clipPath id="cz"><path d="M913.366 116.928L767.35 286.5a5.887 5.887 0 1 0 8.924 7.681L922.29 124.609a5.887 5.887 0 0 0-8.924-7.681z" class="a"/></clipPath><linearGradient id="da" x1="2896.908" x2="2896.908" y1="-999.894" y2="-1221.86" gradientTransform="matrix(0 1 -1.088 0 -363.795 -2692.177)" gradientUnits="userSpaceOnUse"><stop offset=".139" stop-color="#4952a2"/><stop offset=".522" stop-color="#62c2a4"/><stop offset=".881" stop-color="#004768"/></linearGradient></defs><g class="g"><g style="clip-path:url(#g)"><g style="clip-path:url(#m)"><path d="M839.232 41.818h50.917v222.641h-50.917z" style="fill:url(#p)" transform="rotate(-49.137 864.698 153.137)"/></g></g></g><g class="g"><g style="clip-path:url(#s)"><path d="M803.123 56.305h106.854v267.169H803.123z" style="fill:url(#t)" transform="rotate(-17.656 856.558 189.888)"/></g></g><g class="g"><g style="clip-path:url(#w)"><g style="clip-path:url(#ac)"><path d="M667.168 162.745h226.618v41.953H667.168z" style="fill:url(#af)" transform="rotate(-85.868 780.475 183.722)"/></g></g></g><g class="g"><g style="clip-path:url(#ai)"><g style="clip-path:url(#ao)"><path d="M830.253 29.492h46.256v147.081h-46.256z" style="fill:url(#ar)" transform="rotate(-68.911 853.376 103.035)"/></g></g></g><g class="g"><g style="clip-path:url(#au)"><g style="clip-path:url(#ba)"><path d="M908.281 111.929h46.615v116.584h-46.615z" style="fill:url(#bd)" transform="rotate(-14.786 931.604 170.222)"/></g></g></g><g class="g"><g style="clip-path:url(#bg)"><g style="clip-path:url(#bm)"><path d="M849.728 235.659h126.221v67.053H849.728z" style="fill:url(#bp)" transform="rotate(-53.347 912.846 269.185)"/></g></g></g><g class="g"><g style="clip-path:url(#bs)"><g style="clip-path:url(#by)"><path d="M804.699 236.869h41.953v123.999h-41.953z" style="fill:url(#cb)" transform="rotate(-74.614 825.676 298.869)"/></g></g></g><g class="g"><g style="clip-path:url(#ce)"><g style="clip-path:url(#ck)"><path d="M757.748 212.312h198.173v79.962H757.748z" style="fill:url(#cl)" transform="rotate(-15.592 856.85 252.294)"/></g></g></g><g class="g"><g style="clip-path:url(#co)"><g style="clip-path:url(#cu)"><path d="M788.35 184.214h210.576v64.543H788.35z" style="fill:url(#cx)" transform="rotate(-81.934 893.64 216.485)"/></g></g></g><g style="clip-path:url(#cy)"><g style="clip-path:url(#cz)"><path d="M723.906 158.137h241.423v93.229H723.906z" style="fill:url(#da)" transform="rotate(-50.19 844.62 204.75)"/></g></g><path d="M94.332 349.378v43.691H77.169V353.1c0-7.835-3.193-12.085-9.579-12.085-6.653 0-11.842 5.179-11.842 16.467v35.591H38.586V353.1c0-7.835-3.193-12.085-9.713-12.085s-11.708 5.179-11.708 16.467v35.591H0v-67.33h14.77l1.2 8.765c3.06-5.578 9.18-10.228 18.094-10.228 9.579 0 16.1 4.385 19.292 11.822A21.073 21.073 0 0 1 72.78 324.28c14.369 0 21.554 9.829 21.554 25.1M151.272 393.068l-1.33-8.763c-3.06 5.844-9.047 10.226-17.828 10.226-14.5 0-21.687-9.827-21.687-25.1v-43.693h17.163v39.84c0 7.971 3.193 12.218 9.579 12.218 6.52 0 11.708-5.047 11.708-15.934v-36.124h17.163v67.33zM230.169 345.525H213.14c-.134-4.914-2.528-7.7-7.717-7.7-5.056 0-7.451 2.788-7.451 6.637 0 4.119 2.262 6.111 11.708 7.838 16.365 2.656 22.086 9.429 22.086 20.321 0 15.272-12.107 21.912-26.077 21.912-16.633 0-25.813-8.632-26.343-21.912h17.03c.133 5.44 3.725 8.364 9.712 8.364 5.322 0 8.382-2.521 8.382-6.51 0-4.114-2.129-6.5-12.24-8.364-14.768-2.523-21.421-8.9-21.421-20.053 0-11.553 8.116-21.781 24.747-21.781 14.236 0 24.214 8.5 24.613 21.25M305.072 364.65h-46.965c.532 8.9 6.652 15.137 16.1 15.137 6.785 0 11.841-2.656 13.7-7.835h16.764c-4.124 14.212-14.635 22.578-30.866 22.578-19.957 0-33.528-13.813-33.528-35.062 0-20.318 13.438-35.189 33.528-35.189 17.828 0 31.265 11.286 31.265 34.926zm-17.3-11.822c-.266-8.762-5.854-14.342-14.369-14.342-8.781 0-14.5 5.979-15.3 14.342zM358.557 393.068l-1.331-8.763c-3.06 5.844-9.047 10.226-17.828 10.226-14.5 0-21.689-9.827-21.689-25.1v-43.693h17.166v39.84c0 7.971 3.193 12.218 9.579 12.218 6.519 0 11.708-5.047 11.708-15.934v-36.124h17.163v67.33zM485.747 349.378v43.691h-17.163V353.1c0-7.835-3.193-12.085-9.579-12.085-6.653 0-11.841 5.179-11.841 16.467v35.591H430V353.1c0-7.835-3.193-12.085-9.712-12.085s-11.708 5.179-11.708 16.467v35.591h-17.165v-67.33h14.771l1.2 8.765c3.06-5.578 9.18-10.228 18.094-10.228 9.58 0 16.1 4.385 19.292 11.822a21.074 21.074 0 0 1 19.425-11.822c14.368 0 21.553 9.829 21.553 25.1M546.421 372.543v5.851h-9.9v14.674h-6.342v-14.674h-28.151v-5.182l27.672-47.284h6.82v46.615zm-37.283 0h21.044v-36.256l-2.306 4.316zM607.055 368.994c0 14.288-8.648 25.131-22.583 25.131-8.745 0-14.7-4.7-16.912-9.114v28.68h-6.054V344.92h5.67l.1 8.249a20.012 20.012 0 0 1 17.293-9.3c13.938 0 22.49 10.838 22.49 25.129m-39.591-1.343v2.014c0 11.893 7.879 18.7 16.431 18.7 10.185 0 17.01-8.155 17.01-19.374s-6.44-19.47-16.914-19.47c-8.744 0-16.527 6.711-16.527 18.127M647.7 393.068l-.193-7.29c-1.729 4.316-6.728 8.347-13.644 8.347-10.476 0-15.571-7.577-15.571-18.127v-31.08h6.053v30.5c0 8.536 3.945 12.948 10.476 12.948 7.209 0 12.494-6.136 12.494-16.209v-27.239h6.054v48.15zM704.968 361.991v31.08h-6.054v-30.505c0-8.437-4.132-12.849-10.666-12.849-7.206 0-12.784 6.231-12.784 16.59v26.764h-5.958v-48.15h5.578l.286 7.287c1.727-4.122 6.919-8.344 13.839-8.344 10.471 0 15.759 7.576 15.759 18.127M746.573 344.92h7.591l-16.527 19.758 19.026 28.392h-7.015l-16.143-23.693-7.206 8.539v15.154h-5.958v-70.023h5.958v46.043l20.274-24.17zM787.89 344.92v5.659h-13.164l-.192 29.253c0 5.467 1.249 8.344 7.206 8.344a18.654 18.654 0 0 0 6.15-.957v5.465a17.461 17.461 0 0 1-6.825 1.057c-8.357 0-12.585-3.836-12.489-13.142l.193-30.02h-9.612v-5.659h9.612l.1-12.277h6.053l-.1 12.277zM843.716 359.4c0 21-7.781 34.911-21.908 34.911-14.219 0-21.906-13.907-21.906-34.911 0-20.909 7.687-34.72 21.906-34.72 14.127 0 21.908 13.811 21.908 34.72m-37.379 0c0 17.554 5.189 28.965 15.471 28.965 10.185 0 15.379-11.411 15.379-28.965 0-17.456-5.194-28.774-15.379-28.774-10.282 0-15.471 11.318-15.471 28.774" class="bk"/></svg>