<svg xmlns="http://www.w3.org/2000/svg" width="27.005" height="27.002" viewBox="0 0 27.005 27.002">
  <g id="rss-symbol" transform="translate(0 -0.02)">
    <g id="Gruppe_184" data-name="Gruppe 184" transform="translate(0 0.02)">
      <path id="Pfad_2528" data-name="Pfad 2528" d="M3.682,292.382a3.552,3.552,0,0,0-2.608,1.074,3.7,3.7,0,0,0,0,5.216,3.552,3.552,0,0,0,2.608,1.074,3.551,3.551,0,0,0,2.608-1.074,3.7,3.7,0,0,0,0-5.216A3.551,3.551,0,0,0,3.682,292.382Z" transform="translate(0 -272.744)" fill="#fff"/>
      <path id="Pfad_2529" data-name="Pfad 2529" d="M12.158,151.225a16.956,16.956,0,0,0-4.967-3.48A17.193,17.193,0,0,0,1.323,146.2h-.1a1.117,1.117,0,0,0-.824.326,1.13,1.13,0,0,0-.4.9v2.589a1.18,1.18,0,0,0,.316.825,1.165,1.165,0,0,0,.8.383,11.929,11.929,0,0,1,7.508,3.538,11.926,11.926,0,0,1,3.538,7.508,1.2,1.2,0,0,0,1.208,1.113h2.589a1.129,1.129,0,0,0,.9-.4,1.163,1.163,0,0,0,.327-.921,17.2,17.2,0,0,0-1.544-5.868A16.958,16.958,0,0,0,12.158,151.225Z" transform="translate(0 -136.382)" fill="#fff"/>
      <path id="Pfad_2530" data-name="Pfad 2530" d="M24.7,16.119a26.886,26.886,0,0,0-5.638-8.16A26.884,26.884,0,0,0,10.9,2.321,26.613,26.613,0,0,0,1.285.02H1.227A1.148,1.148,0,0,0,.383.365,1.134,1.134,0,0,0,0,1.247V3.99a1.175,1.175,0,0,0,.336.834A1.147,1.147,0,0,0,1.15,5.2,21.728,21.728,0,0,1,8.984,7.154a22.048,22.048,0,0,1,6.444,4.439,22.047,22.047,0,0,1,4.439,6.444A21.438,21.438,0,0,1,21.8,25.871a1.149,1.149,0,0,0,.374.815,1.2,1.2,0,0,0,.854.336h2.742a1.133,1.133,0,0,0,.882-.384,1.11,1.11,0,0,0,.346-.9A26.61,26.61,0,0,0,24.7,16.119Z" transform="translate(0 -0.02)" fill="#fff"/>
    </g>
  </g>
</svg>
