<svg xmlns="http://www.w3.org/2000/svg" width="31.483" height="25.6" viewBox="0 0 31.483 25.6">
  <g id="Twitter_Logo_WhiteOnImage" transform="translate(44.9 -47.4)">
    <g id="Gruppe_183" data-name="Gruppe 183" transform="translate(-44.9 47.4)">
      <path id="Pfad_2527" data-name="Pfad 2527" d="M84.99,124c11.88,0,18.381-9.852,18.381-18.381,0-.277,0-.554-.013-.831a13.161,13.161,0,0,0,3.225-3.351,13.093,13.093,0,0,1-3.717,1.02,6.5,6.5,0,0,0,2.847-3.578,12.85,12.85,0,0,1-4.107,1.562,6.462,6.462,0,0,0-11.175,4.422,7.141,7.141,0,0,0,.164,1.474A18.345,18.345,0,0,1,77.28,99.584a6.486,6.486,0,0,0,2,8.63,6.534,6.534,0,0,1-2.923-.806v.088a6.474,6.474,0,0,0,5.178,6.337,6.5,6.5,0,0,1-2.91.113,6.46,6.46,0,0,0,6.035,4.485,12.957,12.957,0,0,1-8.025,2.772,12.429,12.429,0,0,1-1.537-.088A18.376,18.376,0,0,0,84.99,124" transform="translate(-75.1 -98.4)" fill="#fff"/>
    </g>
  </g>
</svg>
