<svg xmlns="http://www.w3.org/2000/svg" xmlns:xlink="http://www.w3.org/1999/xlink" width="40" height="40"><defs><path id="a" d="M1122 7070a20 20 0 1 0 0 40 20 20 0 0 0 0-40m7.95 15.92l.02.54c0 5.42-4.13 11.68-11.68 11.68-2.32 0-4.47-.68-6.29-1.85a8.23 8.23 0 0 0 6.08-1.7 4.1 4.1 0 0 1-3.84-2.85 4.14 4.14 0 0 0 1.86-.07 4.1 4.1 0 0 1-3.3-4.03v-.05c.56.31 1.19.5 1.86.52a4.1 4.1 0 0 1-1.27-5.49 11.65 11.65 0 0 0 8.46 4.3 4.12 4.12 0 0 1 4-5.05c1.18 0 2.24.5 3 1.3a8.2 8.2 0 0 0 2.6-1c-.3.96-.96 1.77-1.8 2.28a8.2 8.2 0 0 0 2.35-.65 8.36 8.36 0 0 1-2.05 2.12"/></defs><use fill="#fff" xlink:href="#a" transform="translate(-1102 -7070)"/></svg>