<svg xmlns="http://www.w3.org/2000/svg" xmlns:xlink="http://www.w3.org/1999/xlink" width="40" height="40"><defs><path id="a" d="M1184 7070a20 20 0 1 0 0 40 20 20 0 0 0 0-40m5.91 23.35c-2.72 3.53-5.02 5.3-6.9 5.3-1.17 0-2.15-1.08-2.96-3.23l-1.61-5.92c-.6-2.15-1.24-3.23-1.93-3.23-.15 0-.67.32-1.57.95l-.94-1.22c.99-.86 1.96-1.73 2.92-2.6 1.32-1.13 2.3-1.73 2.96-1.8 1.56-.14 2.52.92 2.88 3.2.39 2.45.65 3.98.8 4.58.45 2.04.95 3.06 1.49 3.06.42 0 1.04-.66 1.88-1.99.84-1.32 1.29-2.32 1.35-3.02.12-1.14-.33-1.7-1.35-1.7-.48 0-.97.1-1.48.32.99-3.22 2.86-4.78 5.64-4.7 2.05.07 3.02 1.4 2.9 4-.09 1.95-1.45 4.62-4.08 8"/></defs><use fill="#fff" xlink:href="#a" transform="translate(-1164 -7070)"/></svg>